<svg width="96" height="97" viewBox="0 0 96 97" fill="none" xmlns="http://www.w3.org/2000/svg">
<path id="Vector" d="M88.5 47.918C88.5 43.0293 85.3646 38.861 81 37.313V34.418C81 24.0792 72.5889 15.668 62.25 15.668C51.9111 15.668 43.5 24.0792 43.5 34.418V70.418C43.5 76.8316 38.9859 81.668 33 81.668C27.0141 81.668 22.5 76.8316 22.5 70.418V53.168H26.25C28.3211 53.168 30 51.4891 30 49.418V34.4084C34.5512 30.9843 37.5 25.5391 37.5 19.418C37.5 9.07922 29.0889 0.667969 18.75 0.667969C8.41106 0.667969 0 9.07922 0 19.418C0 25.5391 2.94881 30.9843 7.5 34.4084V49.418C7.5 51.4891 9.17887 53.168 11.25 53.168H15V70.418C15 75.4255 16.7843 80.0997 20.0237 83.5797C23.3784 87.1835 27.9868 89.168 33 89.168C38.0132 89.168 42.6216 87.1835 45.9763 83.5797C49.2158 80.0997 51 75.4255 51 70.418V34.418C51 28.2147 56.0467 23.168 62.25 23.168C68.4532 23.168 73.5 28.2147 73.5 34.418V37.313C69.1354 38.861 66 43.0293 66 47.918C61.3262 51.4336 58.5 56.9986 58.5 62.918V70.418C58.5 76.2815 61.3264 81.8189 66 85.3403V85.418C66 91.6212 71.0468 96.668 77.25 96.668C83.4532 96.668 88.5 91.6212 88.5 85.418V85.3403C93.1736 81.8189 96 76.2817 96 70.418V62.918C96 56.9986 93.1738 51.4336 88.5 47.918ZM18.75 8.16797C24.9533 8.16797 30 13.2147 30 19.418C30 24.3067 26.8646 28.475 22.5 30.023V19.418C22.5 17.3468 20.8211 15.668 18.75 15.668C16.6789 15.668 15 17.3468 15 19.418V30.023C10.6354 28.475 7.5 24.3067 7.5 19.418C7.5 13.2147 12.5468 8.16797 18.75 8.16797ZM18.75 38.168C20.0338 38.168 21.288 38.038 22.5 37.7909V45.668H15V37.7909C16.212 38.038 17.4662 38.168 18.75 38.168ZM88.5 70.418C88.5 74.4245 86.3931 78.0425 82.8638 80.0963C81.7099 80.768 81 82.0025 81 83.3375V85.418C81 87.4857 79.3177 89.168 77.25 89.168C75.1823 89.168 73.5 87.4857 73.5 85.418V83.3375C73.5 82.0023 72.7901 80.768 71.6364 80.0963C68.1069 78.0425 66 74.4243 66 70.418V62.918C66 58.9135 68.1564 55.1787 71.6276 53.171C72.7866 52.5007 73.5 51.2635 73.5 49.925V47.918C73.5 45.8502 75.1823 44.168 77.25 44.168C79.3177 44.168 81 45.8502 81 47.918V49.9248C81 51.2635 81.7136 52.5007 82.8724 53.1708C86.3436 55.1787 88.5 58.9135 88.5 62.918V70.418Z" fill="#95A4CA"/>
</svg>
