<svg width="21" height="21" viewBox="0 0 21 21" fill="none" xmlns="http://www.w3.org/2000/svg">
<mask id="mask0_5333_6334" style="mask-type:alpha" maskUnits="userSpaceOnUse" x="0" y="0" width="21" height="21">
<rect x="0.5" y="0.664062" width="20" height="20" fill="#D9D9D9"/>
</mask>
<g mask="url(#mask0_5333_6334)">
<path d="M7.2547 12.1173C7.07549 12.1173 6.92099 12.0538 6.79118 11.9269C6.66137 11.8001 6.59647 11.647 6.59647 11.4678C6.59647 11.2886 6.65991 11.1341 6.78678 11.0043C6.91367 10.8745 7.06671 10.8096 7.24591 10.8096C7.42512 10.8096 7.57962 10.873 7.70943 10.9999C7.83924 11.1268 7.90414 11.2798 7.90414 11.459C7.90414 11.6382 7.8407 11.7927 7.71383 11.9226C7.58694 12.0524 7.43389 12.1173 7.2547 12.1173ZM10.5047 12.1173C10.3255 12.1173 10.171 12.0538 10.0412 11.9269C9.91137 11.8001 9.84647 11.647 9.84647 11.4678C9.84647 11.2886 9.90991 11.1341 10.0368 11.0043C10.1637 10.8745 10.3167 10.8096 10.4959 10.8096C10.6751 10.8096 10.8296 10.873 10.9594 10.9999C11.0892 11.1268 11.1541 11.2798 11.1541 11.459C11.1541 11.6382 11.0907 11.7927 10.9638 11.9226C10.8369 12.0524 10.6839 12.1173 10.5047 12.1173ZM13.7547 12.1173C13.5755 12.1173 13.421 12.0538 13.2912 11.9269C13.1614 11.8001 13.0965 11.647 13.0965 11.4678C13.0965 11.2886 13.1599 11.1341 13.2868 11.0043C13.4137 10.8745 13.5667 10.8096 13.7459 10.8096C13.9251 10.8096 14.0796 10.873 14.2094 10.9999C14.3392 11.1268 14.4041 11.2798 14.4041 11.459C14.4041 11.6382 14.3407 11.7927 14.2138 11.9226C14.0869 12.0524 13.9339 12.1173 13.7547 12.1173ZM5.25674 18.2487C4.88163 18.2487 4.56456 18.1167 4.30553 17.8528C4.04651 17.5889 3.91699 17.2743 3.91699 16.9089V6.42178C3.91699 6.05639 4.04651 5.74175 4.30553 5.47786C4.56456 5.21398 4.88163 5.08203 5.25674 5.08203H15.7439C16.119 5.08203 16.436 5.21398 16.6951 5.47786C16.9541 5.74175 17.0836 6.05639 17.0836 6.42178V16.9089C17.0836 17.2743 16.9541 17.5889 16.6951 17.8528C16.436 18.1167 16.119 18.2487 15.7439 18.2487H5.25674ZM5.25674 17.1653H15.7439C15.808 17.1653 15.8667 17.1386 15.9202 17.0852C15.9736 17.0318 16.0003 16.973 16.0003 16.9089V8.92178H5.0003V16.9089C5.0003 16.973 5.02701 17.0318 5.08043 17.0852C5.13386 17.1386 5.19263 17.1653 5.25674 17.1653Z" fill="#6D6D6D"/>
</g>
</svg>
