<svg width="96" height="96" viewBox="0 0 96 96" fill="none" xmlns="http://www.w3.org/2000/svg">
<path d="M2.18963e-05 47.9374C0.0250676 21.4641 21.5393 -0.0250238 48.0376 2.18708e-05C74.5609 0.0250675 96.0501 21.5643 96 48.0877C95.9249 74.5609 74.3856 96.0501 47.9124 96C21.4391 95.9249 -0.0250238 74.4357 2.18963e-05 47.9374ZM5.61025 47.9625C5.5852 71.3301 24.5448 90.3147 47.9374 90.3898C71.1297 90.4399 90.3147 71.4803 90.3397 48.4383C90.3648 24.695 71.5304 5.66034 47.9875 5.63529C24.6199 5.61025 5.63529 24.5448 5.61025 47.9625Z" fill="white"/>
<path d="M39.1965 54.2739C39.1965 56.0271 39.1965 57.7803 39.1965 59.5335C39.1965 62.1884 39.2215 64.8432 39.1714 67.498C39.1213 70.779 36.5166 73.3337 33.2356 73.4088C30.0548 73.484 27.3499 70.9794 27.1244 67.7736C27.0994 67.473 27.0994 67.1474 27.0994 66.8469C27.0994 54.299 27.0994 41.7261 27.0994 29.1782C27.0994 25.797 29.0029 23.3926 32.1336 22.8166C34.1122 22.466 35.8654 23.017 37.293 24.3945C37.8189 24.8954 38.3199 25.0707 39.0211 25.0707C43.9301 25.0457 48.839 25.0957 53.7229 25.0457C56.4529 25.0206 58.5818 25.9974 59.9343 28.4519C60.0595 28.6773 60.4602 28.8526 60.7357 28.8776C61.7876 28.9528 62.8646 28.8276 63.9165 29.0029C66.8969 29.5038 68.8505 32.0084 68.8505 35.2643C68.8756 40.7242 68.8505 46.2092 68.8505 51.6692C68.8505 51.9196 68.8255 52.1701 68.8255 52.4206C68.6001 55.5262 66.1706 57.9807 63.09 58.0057C57.2544 58.0809 51.4187 58.0558 45.558 58.0057C43.329 57.9807 41.6259 56.8286 40.5489 54.9001C40.2484 54.299 39.9478 54.0235 39.1965 54.2739ZM39.2465 48.5886C40.3986 48.5886 41.4506 48.5886 42.5025 48.5886C45.3326 48.5886 45.3577 48.5886 45.3326 51.3686C45.3326 52.2202 45.6582 52.4456 46.4346 52.4456C51.7193 52.4206 57.0039 52.4206 62.2635 52.4456C63.0149 52.4456 63.3154 52.1951 63.3154 51.4187C63.2904 46.084 63.2904 40.7242 63.3154 35.3895C63.3154 34.6632 63.065 34.3877 62.3386 34.3877C60.7357 34.4127 59.1578 34.3877 57.5549 34.3877C55.0003 34.3877 54.9001 34.3125 54.9502 31.7579C54.9752 30.8813 54.7248 30.5557 53.7981 30.5557C49.2398 30.6058 44.6814 30.5807 40.1231 30.5807C39.8226 30.5807 39.522 30.6058 39.2215 30.6308C39.2465 36.6418 39.2465 42.5526 39.2465 48.5886ZM32.0584 47.9875C32.0584 53.9233 32.0584 59.8591 32.0584 65.7949C32.0584 66.0454 32.0334 66.2959 32.0584 66.5463C32.1085 67.1725 32.4592 67.5481 33.0853 67.5481C33.7115 67.5481 34.037 67.1474 34.1122 66.5463C34.1372 66.3209 34.1122 66.1205 34.1122 65.8951C34.1122 53.9734 34.1122 42.0266 34.1122 30.1049C34.1122 29.8544 34.2124 29.5288 34.0871 29.3786C33.8116 29.0279 33.436 28.527 33.0853 28.527C32.7597 28.527 32.359 29.0279 32.1085 29.4036C31.9833 29.604 32.0835 29.9546 32.0835 30.2301C32.0584 36.1409 32.0584 42.0767 32.0584 47.9875Z" fill="white"/>
</svg>
