<svg width="96" height="91" viewBox="0 0 96 91" fill="none" xmlns="http://www.w3.org/2000/svg">
<g id="Vector">
<path d="M84.75 0.667969H11.25C5.0475 0.667969 0 5.71547 0 11.918V79.418C0 85.6205 5.0475 90.668 11.25 90.668H84.75C90.9525 90.668 96 85.6205 96 79.418V11.918C96 5.71547 90.9525 0.667969 84.75 0.667969ZM7.5 38.168H18C19.4194 38.168 20.7188 37.3655 21.3544 36.0942L24.8063 29.1923L29.4431 43.103C29.9231 44.5411 31.2225 45.5498 32.7356 45.6567C34.2487 45.7636 35.6775 44.9498 36.3562 43.5923L40.5019 35.3011L40.8975 36.0923C41.5331 37.3636 42.8306 38.1661 44.2519 38.1661H55.5019C56.9231 38.1661 58.2206 37.3636 58.8562 36.0923L62.3081 29.1905L66.945 43.1011C67.3556 44.3348 68.3756 45.2667 69.6413 45.5648C69.9263 45.6323 70.215 45.6642 70.5037 45.6642C71.4862 45.6642 72.4444 45.278 73.155 44.5655L79.5562 38.1642H88.5037V53.1642H7.5V38.1642V38.168ZM84.75 8.16797C86.8181 8.16797 88.5 9.84984 88.5 11.918V30.668H78C77.0062 30.668 76.0519 31.0636 75.3487 31.7667L72.1387 34.9767L66.5569 18.233C66.0769 16.7948 64.7775 15.7861 63.2644 15.6792C61.7513 15.5723 60.3225 16.3861 59.6438 17.7417L53.1806 30.668H46.5656L43.8525 25.2417C43.2169 23.9705 41.9194 23.168 40.4981 23.168C39.0769 23.168 37.7794 23.9705 37.1438 25.2417L33.6919 32.1436L29.055 18.233C28.575 16.7948 27.2756 15.7861 25.7625 15.6792C24.2475 15.5723 22.8206 16.3861 22.1419 17.7417L15.6788 30.668H7.49625V11.918C7.49625 9.84984 9.17813 8.16797 11.2463 8.16797H84.75ZM84.75 83.168H11.25C9.18188 83.168 7.5 81.4861 7.5 79.418V60.668H88.5V79.418C88.5 81.4861 86.8181 83.168 84.75 83.168Z" fill="#95A4CA"/>
<path d="M18 75.668C20.0711 75.668 21.75 73.989 21.75 71.918C21.75 69.8469 20.0711 68.168 18 68.168C15.9289 68.168 14.25 69.8469 14.25 71.918C14.25 73.989 15.9289 75.668 18 75.668Z" fill="#95A4CA"/>
<path d="M33 75.668C35.0711 75.668 36.75 73.989 36.75 71.918C36.75 69.8469 35.0711 68.168 33 68.168C30.9289 68.168 29.25 69.8469 29.25 71.918C29.25 73.989 30.9289 75.668 33 75.668Z" fill="#95A4CA"/>
<path d="M78 68.168H63C60.9281 68.168 59.25 69.8461 59.25 71.918C59.25 73.9898 60.9281 75.668 63 75.668H78C80.0719 75.668 81.75 73.9898 81.75 71.918C81.75 69.8461 80.0719 68.168 78 68.168Z" fill="#95A4CA"/>
</g>
</svg>
