<svg width="44" height="44" viewBox="0 0 44 44" fill="none" xmlns="http://www.w3.org/2000/svg">
<g clip-path="url(#clip0_3259_58040)">
<path d="M20.1177 24.64C20.3984 24.6394 20.6819 24.6388 20.9691 24.6388C20.9691 24.9143 20.9691 25.1853 20.9691 25.4531C20.969 26.0551 20.969 26.6409 20.9692 27.2267C20.9694 28.0136 21.3651 28.4935 22.0084 28.488C22.6504 28.4825 23.0312 28.0071 23.0315 27.2102C23.0316 26.9715 23.0315 26.7327 23.0315 26.494C23.0314 25.9767 23.0313 25.4594 23.0325 24.9421C23.0326 24.876 23.0384 24.8099 23.0445 24.7407C23.0474 24.7076 23.0504 24.6737 23.0529 24.6389C23.3424 24.6389 23.6288 24.6399 23.913 24.6409L23.9139 24.6409H23.9142C24.5617 24.6431 25.1981 24.6452 25.8342 24.6358C26.6383 24.6237 27.1246 23.8213 26.7563 23.1316C26.5543 22.7535 26.2247 22.5776 25.7996 22.5773C25.1539 22.5767 24.5082 22.5768 23.8519 22.5769C23.5805 22.577 23.3073 22.577 23.0315 22.577V22.2052C23.0315 21.9816 23.0316 21.7581 23.0316 21.5346C23.0316 21.025 23.0317 20.5154 23.0315 20.0058C23.0312 19.2089 22.6505 18.7336 22.0086 18.728C21.3652 18.7224 20.9696 19.2021 20.9691 19.9887C20.969 20.3341 20.969 20.6796 20.969 21.0251V21.0315C20.9691 21.1879 20.9691 21.3443 20.9691 21.5008V22.577C20.7153 22.577 20.4645 22.5762 20.2161 22.5754H20.216C19.5506 22.5733 18.9014 22.5713 18.2526 22.5845C18.0332 22.5889 17.7938 22.6462 17.6018 22.7499C17.2188 22.957 17.043 23.4378 17.1498 23.8448C17.2731 24.3144 17.6548 24.6309 18.1485 24.636C18.7999 24.6428 19.4513 24.6414 20.1177 24.64Z" fill="#1E1E1E"/>
<path d="M25.5766 35.6443C25.1416 35.6443 24.7065 35.6444 24.2714 35.6445C23.1844 35.6449 22.0975 35.6452 21.0105 35.6435C20.3416 35.6425 19.8765 35.2222 19.8702 34.6231C19.8638 34.0233 20.3308 33.5834 20.9898 33.5829C24.0454 33.5807 27.1009 33.5802 30.1565 33.5831C30.9816 33.5839 31.5087 34.3127 31.1922 35.0185C30.9998 35.4473 30.6465 35.6452 30.1771 35.6447C29.0592 35.6437 27.9413 35.6439 26.8234 35.6441C26.4078 35.6442 25.9922 35.6442 25.5766 35.6443Z" fill="#1E1E1E"/>
<path d="M26.6449 37.9816H26.641C26.4047 37.9817 26.1008 37.9818 25.5713 37.9818C25.1543 37.9818 24.7374 37.9819 24.3205 37.982C23.2039 37.9822 22.0874 37.9824 20.9708 37.9812C20.5005 37.9806 20.1486 38.1808 19.9565 38.6088C19.64 39.3136 20.1689 40.0421 20.9952 40.0429C23.4768 40.0455 24.7284 40.045 26.7629 40.0443C27.2148 40.0442 27.7053 40.044 28.2564 40.0438C28.9765 40.0436 29.4503 39.6247 29.4429 39.0005C29.4356 38.3892 28.9683 37.9827 28.2663 37.9822C27.2881 37.9814 27.0801 37.9814 26.6449 37.9816Z" fill="#1E1E1E"/>
<path d="M14.8477 35.6433C14.7379 35.6434 14.628 35.6442 14.5182 35.6451C14.2623 35.647 14.0065 35.649 13.7509 35.6417C13.1677 35.6252 12.724 35.1783 12.7205 34.6186C12.7171 34.0595 13.1599 33.5958 13.7391 33.5856C14.4815 33.5724 15.2245 33.5718 15.9669 33.5859C16.5463 33.5969 16.9869 34.0636 16.9803 34.624C16.9738 35.1704 16.5414 35.6186 15.9787 35.6402C15.7212 35.6501 15.4631 35.6477 15.2051 35.6453H15.2049C15.0858 35.6443 14.9667 35.6432 14.8477 35.6433Z" fill="#1E1E1E"/>
<path d="M14.5071 40.0452C14.6217 40.0445 14.7363 40.0437 14.8508 40.0438C14.9588 40.0438 15.0668 40.0443 15.1747 40.0448C15.421 40.046 15.6672 40.0472 15.9134 40.0427C16.5246 40.0315 16.9753 39.5961 16.9803 39.0208C16.9853 38.4461 16.5345 37.9919 15.9296 37.9842C15.2099 37.9749 14.4899 37.9749 13.7702 37.9842C13.1673 37.992 12.7152 38.4484 12.7206 39.0217C12.7258 39.5816 13.1698 40.0258 13.754 40.0418C14.0049 40.0486 14.256 40.0469 14.5071 40.0452Z" fill="#1E1E1E"/>
<path fill-rule="evenodd" clip-rule="evenodd" d="M12.7104 11.2976C12.7076 11.3879 12.7047 11.4808 12.6987 11.5772C12.4622 11.5772 12.229 11.5771 11.9979 11.5771H11.9975C11.4926 11.577 10.9981 11.5769 10.5035 11.5772C9.1259 11.5782 8.3197 12.3774 8.31964 13.7454C8.31923 23.2768 8.31924 32.8081 8.31963 42.3395C8.31969 43.6924 9.12725 44.507 10.4702 44.5071C18.1572 44.5078 25.8442 44.5078 33.5312 44.5071C34.8595 44.507 35.6806 43.6923 35.6807 42.3725C35.6815 32.8182 35.6812 23.264 35.6803 13.7097L35.6803 13.6808C35.6804 13.5416 35.6805 13.4007 35.6585 13.2643C35.4997 12.2793 34.7031 11.5903 33.7012 11.5792C33.1495 11.5731 32.5977 11.5746 32.0413 11.5761C31.793 11.5768 31.5437 11.5775 31.2932 11.5775C31.2914 11.5409 31.2896 11.5091 31.2879 11.4802C31.2848 11.4259 31.2823 11.3822 31.2816 11.3385C31.2594 9.96512 30.5917 9.30855 29.2164 9.3085C27.2034 9.30843 25.1904 9.30845 23.1774 9.30847L21.9647 9.30848C21.2673 9.30848 20.5698 9.30826 19.8724 9.30805C18.0953 9.30749 16.3183 9.30694 14.5413 9.31008C13.6293 9.31169 12.9208 9.88487 12.7545 10.7595C12.7218 10.9315 12.7163 11.1087 12.7104 11.2976ZM10.4061 42.4176V13.6558L12.7028 13.6558C12.707 13.7326 12.709 13.8083 12.7109 13.8829C12.7149 14.0419 12.7189 14.1963 12.7442 14.3471C12.8966 15.2529 13.6286 15.8384 14.6023 15.8388C17.7403 15.84 20.8783 15.8398 24.0162 15.8397L24.0521 15.8397C25.1753 15.8396 26.2985 15.8395 27.4218 15.8395C27.6201 15.8395 27.8184 15.8396 28.0168 15.8397C28.46 15.8399 28.9032 15.8401 29.3464 15.8393C30.5444 15.8373 31.2665 15.12 31.2811 13.9189C31.2818 13.8667 31.2816 13.8146 31.2814 13.756V13.7525C31.2814 13.724 31.2813 13.6939 31.2813 13.6615H33.6006V42.4176H10.4061ZM14.798 11.3953H29.2036V13.7588H14.798V11.3953Z" fill="#1E1E1E"/>
</g>
<rect x="1.25" y="1.25" width="41.5" height="41.5" rx="10.75" stroke="#1E1E1E" stroke-width="2.5"/>
<defs>
<clipPath id="clip0_3259_58040">
<rect width="44" height="44" rx="12" fill="white"/>
</clipPath>
</defs>
</svg>
