<svg width="32" height="32" viewBox="0 0 32 32" fill="none" xmlns="http://www.w3.org/2000/svg">
<path fill-rule="evenodd" clip-rule="evenodd" d="M24.2538 9.29462C23.8656 8.90179 23.2362 8.90179 22.848 9.29462C22.4598 9.68745 22.4598 10.3243 22.848 10.7172L27.0298 14.9488H1.80957C1.25729 14.9488 0.80957 15.3965 0.80957 15.9488C0.80957 16.5011 1.25729 16.9488 1.80957 16.9488H27.0295L22.848 21.18C22.4598 21.5728 22.4598 22.2097 22.848 22.6026C23.2362 22.9954 23.8656 22.9954 24.2538 22.6026L29.9645 16.824C30.1321 16.7311 30.2703 16.5913 30.3613 16.4224L30.8296 15.9486L30.3609 15.4743C30.27 15.306 30.1323 15.1668 29.9652 15.074L24.2538 9.29462Z" fill="#3848A2"/>
</svg>
