<svg width="44" height="44" viewBox="0 0 44 44" fill="none" xmlns="http://www.w3.org/2000/svg">
<g clip-path="url(#clip0_3259_58035)">
<path d="M20.44 19.1108C20.6132 19.1105 20.79 19.1102 20.9721 19.1102C20.9721 19.2887 20.9719 19.4638 20.9717 19.6365C20.9713 20.0287 20.9708 20.4084 20.9727 20.7881C20.975 21.2286 21.1684 21.5613 21.5662 21.7544C22.2412 22.0821 23.0071 21.6053 23.0296 20.8366C23.0411 20.4454 23.0383 20.0538 23.0354 19.6548C23.0342 19.4749 23.0329 19.2935 23.0329 19.1099C23.2141 19.1099 23.3912 19.1103 23.5653 19.1106C23.9604 19.1114 24.3406 19.1121 24.7207 19.1088C25.1455 19.105 25.4714 18.9203 25.6662 18.5379C26.0151 17.8527 25.5377 17.0715 24.7512 17.0516C24.3601 17.0417 23.9688 17.0441 23.572 17.0466C23.3935 17.0477 23.2139 17.0488 23.0328 17.0488C23.0328 16.8568 23.0342 16.6697 23.0355 16.486C23.0385 16.0858 23.0414 15.7017 23.0294 15.3182C23.004 14.5076 22.1471 14.0352 21.472 14.4527C21.1344 14.6614 20.9717 14.9754 20.972 15.3732C20.9723 15.7625 20.9722 16.1518 20.9721 16.5379C20.9721 16.7024 20.9721 16.8664 20.9721 17.0296C20.9412 17.0338 20.9189 17.0373 20.9019 17.04C20.8756 17.0441 20.8619 17.0463 20.8481 17.0463C20.6716 17.0467 20.495 17.0467 20.3185 17.0467C19.9912 17.0466 19.6639 17.0466 19.3366 17.0491C18.694 17.0541 18.2328 17.4768 18.2239 18.0632C18.2148 18.6644 18.6809 19.1045 19.3393 19.1094C19.7003 19.1121 20.0614 19.1115 20.44 19.1108Z" fill="#1E1E1E"/>
<path fill-rule="evenodd" clip-rule="evenodd" d="M22.0164 10.1758C26.3742 10.1821 29.9168 13.7406 29.9062 18.101C29.8956 22.4576 26.332 25.9973 21.9716 25.9827C17.63 25.9681 14.0968 22.4183 14.0993 18.0735C14.1019 13.7154 17.6565 10.1695 22.0164 10.1758ZM22.0081 23.9208C25.2216 23.9187 27.8432 21.2959 27.8443 18.0819C27.8455 14.8657 25.2281 12.2419 22.0144 12.2376C18.7829 12.2334 16.1562 14.861 16.1612 18.0928C16.1661 21.3046 18.7929 23.9229 22.0081 23.9208Z" fill="#1E1E1E"/>
<path fill-rule="evenodd" clip-rule="evenodd" d="M35.7961 36.2162C36.8745 36.6978 37.74 37.3727 38.4077 38.2917C39.1628 39.3313 39.5542 40.4956 39.5926 41.7781C39.6018 42.0835 39.5997 42.3893 39.5977 42.695V42.6951C39.5973 42.7444 39.597 42.7938 39.5967 42.8431C39.5925 43.5747 39.1782 43.9887 38.4424 43.9892C36.3121 43.9904 34.1817 43.9902 32.0514 43.99C31.2613 43.9899 30.4713 43.9898 29.6813 43.9898H29.2468C29.2435 44.022 29.2398 44.0529 29.2362 44.0828C29.2288 44.1446 29.2218 44.2025 29.2201 44.2605C29.1993 44.9527 28.7863 45.3625 28.0903 45.3634C26.5449 45.3653 24.9995 45.365 23.4541 45.3647L23.4355 45.3647C22.8455 45.3645 22.2555 45.3644 21.6655 45.3644C19.8446 45.3644 18.0237 45.3644 16.2027 45.3644C15.1345 45.3644 14.8476 45.0982 14.767 43.9898H14.3716C13.5674 43.9898 12.7631 43.9899 11.9589 43.9899C9.85423 43.9899 7.74955 43.99 5.64487 43.9897C4.79544 43.9896 4.42624 43.6023 4.40445 42.7533C4.37205 41.4909 4.4842 40.2626 5.0861 39.1199C5.74295 37.873 6.69566 36.9374 7.97187 36.334C8.01863 36.3119 8.06338 36.2855 8.11477 36.2552C8.14092 36.2398 8.16885 36.2233 8.19959 36.2059C7.6423 35.5077 7.23894 34.7391 7.20634 33.8633C7.20314 33.7775 7.19985 33.6915 7.19654 33.6055C7.15596 32.5481 7.11486 31.4773 7.25938 30.4387C7.55506 28.3138 9.53866 26.7746 11.7357 26.8094C13.8634 26.8431 15.7602 28.473 16.0193 30.5888C16.172 31.8357 16.2324 33.1113 15.9466 34.3463C15.8428 34.7944 15.6404 35.2196 15.4358 35.6495C15.3427 35.845 15.2492 36.0415 15.1643 36.2415C15.2698 36.3078 15.3845 36.3762 15.5046 36.4477C15.798 36.6224 16.123 36.816 16.4211 37.0445C16.7088 37.2651 16.9705 37.5195 17.234 37.7757C17.3501 37.8885 17.4665 38.0017 17.5856 38.1125L18.5755 37.5769C18.0193 36.8823 17.617 36.1129 17.5842 35.2369C17.5811 35.1539 17.5779 35.0708 17.5747 34.9877C17.5339 33.9275 17.4925 32.8536 17.6375 31.8122C17.9334 29.6875 19.9171 28.1489 22.1146 28.184C24.2417 28.2179 26.1382 29.8482 26.3974 31.9644C26.5501 33.2113 26.5723 34.4776 26.3372 35.7251C26.2746 36.057 26.1397 36.3823 25.9936 36.6895C25.8924 36.9023 25.7646 37.1026 25.6335 37.3079C25.5751 37.3994 25.516 37.4919 25.4584 37.5869L26.4183 38.114C26.5376 38.0032 26.6548 37.8896 26.7719 37.7761C27.0395 37.5165 27.3071 37.2571 27.6007 37.0315C27.8862 36.8122 28.1981 36.6272 28.5172 36.438C28.6592 36.3537 28.8027 36.2686 28.9459 36.1792C28.0709 35.1554 27.8441 33.9318 27.9135 32.624C27.9267 32.3743 27.93 32.1225 27.9333 31.8707C27.9405 31.3179 27.9478 30.7651 28.0603 30.2346C28.519 28.0724 30.646 26.5853 32.8054 26.8236C35.0921 27.0759 36.8174 28.9444 36.846 31.2066C36.8527 31.7434 36.8509 32.2804 36.8491 32.8173C36.8486 32.979 36.848 33.1407 36.8477 33.3024C36.8456 34.3839 36.495 35.3434 35.7961 36.2162ZM27.1436 43.2891C27.2023 41.3719 25.6837 39.5244 23.7583 39.2637C22.8535 39.1411 21.9236 39.1635 21.0054 39.1856L20.9155 39.1877C19.3215 39.2257 18.1242 39.9772 17.342 41.3601C17.009 41.9487 16.8332 42.5929 16.8611 43.2891H27.1436ZM15.9576 39.4612C15.3592 38.6457 14.4857 38.0233 13.3679 37.8881C12.6426 37.8004 11.9051 37.8037 11.1696 37.807H11.1694C10.9881 37.8078 10.8069 37.8086 10.626 37.8081C9.35041 37.8042 8.28668 38.3002 7.45622 39.264C6.80837 40.0159 6.48572 40.8984 6.47218 41.928H10.5865C10.8979 41.928 11.2092 41.928 11.5206 41.928C12.5606 41.9279 13.6007 41.9279 14.6407 41.9283C14.6487 41.9284 14.6565 41.9284 14.6643 41.9284C14.8122 41.929 14.9246 41.9295 15.0033 41.7248C15.2046 41.2008 15.4282 40.6854 15.6672 40.1342C15.7617 39.9164 15.8586 39.6929 15.9576 39.4612ZM28.3263 40.1169L28.3263 40.117C28.5602 40.6341 28.7807 41.1214 28.9722 41.6198C29.0627 41.8553 29.1442 41.9343 29.3924 41.9335C31.4287 41.9265 33.465 41.9271 35.5013 41.9277C36.0647 41.9278 36.6281 41.928 37.1916 41.928H37.5195C37.5901 40.0097 36.0623 38.1358 34.1344 37.8926C33.0637 37.7576 31.9601 37.7734 30.8802 37.8486C29.6672 37.9331 28.7079 38.5682 28.0378 39.4741C28.1354 39.695 28.232 39.9084 28.3263 40.1169ZM14.0535 32.3207L14.0295 32.3196C14.0295 32.2079 14.0301 32.0962 14.0306 31.9845C14.0318 31.7412 14.0331 31.4979 14.0285 31.2547C14.0034 29.9271 12.9484 28.8766 11.6387 28.8705C10.3123 28.8644 9.24034 29.9196 9.22166 31.2611C9.21194 31.9594 9.21185 32.6581 9.22177 33.3565C9.23945 34.6004 10.181 35.6201 11.4047 35.7343C12.6283 35.8485 13.753 35.0189 13.9702 33.7908C14.0286 33.4611 14.0345 33.122 14.0404 32.783C14.0431 32.6286 14.0459 32.4742 14.0535 32.3207ZM29.95 32.2996L29.977 32.3009C29.977 32.4161 29.9762 32.5314 29.9754 32.6466C29.9737 32.8979 29.972 33.1491 29.9784 33.4001C30.0116 34.6988 31.0802 35.7395 32.3759 35.7414C33.6728 35.7433 34.7504 34.7078 34.781 33.4095C34.7983 32.6771 34.797 31.9436 34.7815 31.2111C34.7555 29.9909 33.799 28.981 32.5914 28.8768C31.3765 28.7719 30.2571 29.5902 30.0399 30.7959C29.9792 31.1331 29.972 31.4801 29.9648 31.827C29.9616 31.9848 29.9583 32.1427 29.95 32.2996ZM19.5738 33.6564L19.5986 33.6575C19.5986 33.7727 19.5979 33.8879 19.5972 34.0032C19.5958 34.2544 19.5943 34.5056 19.5998 34.7567C19.6283 36.0595 20.687 37.1064 21.9799 37.1159C23.2928 37.1257 24.3762 36.084 24.4039 34.7678C24.419 34.0467 24.4177 33.3249 24.4044 32.6038C24.3817 31.3786 23.4419 30.3702 22.2311 30.2527C21.0094 30.1342 19.8786 30.9615 19.6585 32.1865C19.5993 32.516 19.5932 32.855 19.5871 33.1941C19.5843 33.3485 19.5816 33.5029 19.5738 33.6564Z" fill="#1E1E1E"/>
</g>
<rect x="1.25" y="1.25" width="41.5" height="41.5" rx="10.75" stroke="#1E1E1E" stroke-width="2.5"/>
<defs>
<clipPath id="clip0_3259_58035">
<rect width="44" height="44" rx="12" fill="white"/>
</clipPath>
</defs>
</svg>
