<svg width="44" height="44" viewBox="0 0 44 44" fill="none" xmlns="http://www.w3.org/2000/svg">
<g clip-path="url(#clip0_3259_58045)">
<path d="M37.1012 28.8954C39.1288 26.6914 39.943 24.0876 39.4674 21.1276C38.394 14.4462 30.6559 11.1976 25.1765 15.1515C24.1279 15.9082 23.2586 16.9154 22.3138 17.8146C22.218 17.9058 22.1722 18.0497 22.0822 18.2053C21.2633 17.3746 20.5819 16.6295 19.8442 15.9452C17.5431 13.8107 14.8095 13.0061 11.7582 13.6428C8.30074 14.3643 5.93025 16.4841 4.87085 19.8599C3.81223 23.2331 4.54913 26.3069 6.95388 28.9132C8.1653 30.2262 9.4629 31.4597 10.733 32.7175C10.9213 32.904 10.9639 33.0513 10.8763 33.3081C10.2231 35.2228 11.3329 37.2317 13.2979 37.7122C13.5384 37.771 13.7862 37.7995 14.0438 37.8443C14.0944 38.7609 14.4138 39.5506 15.0581 40.1954C15.7019 40.8398 16.4974 41.1422 17.3839 41.1987C17.6639 42.9576 18.4067 43.9655 19.786 44.3866C21.2059 44.82 22.4173 44.4284 23.4346 43.3486C24.4738 44.4608 25.7307 44.9011 27.1951 44.4045C28.674 43.9029 29.3917 42.7692 29.5262 41.2477C31.2495 41.1498 32.7294 39.9534 32.9051 37.8636C32.9671 37.8557 33.0331 37.846 33.0993 37.8391C34.4742 37.695 35.4652 36.9927 35.9781 35.7133C36.4963 34.4208 36.2657 33.2112 35.3473 32.1593C35.1239 31.9035 34.8324 31.7075 34.484 31.4082C34.6933 31.2633 34.811 31.205 34.8992 31.1171C35.6378 30.3811 36.3956 29.6623 37.1012 28.8954ZM12.3364 31.421C11.3057 30.3848 10.3349 29.4281 9.38725 28.4488C8.81491 27.8574 8.20513 27.2824 7.73796 26.612C4.75116 22.3257 7.40522 16.286 12.568 15.5883C14.8529 15.2796 16.8629 15.9131 18.5146 17.5272C20.4074 19.377 22.2583 21.2699 24.1203 23.1511C24.7018 23.7386 24.7051 24.5772 24.1554 25.1187C23.6009 25.665 22.8047 25.6296 22.1995 25.0285C21.8744 24.7056 21.5558 24.3759 21.2301 24.0534C20.6876 23.5164 20.1241 23.5152 19.5824 24.0574C17.2417 26.3999 14.903 28.7444 12.5665 31.091C12.4795 31.1784 12.4224 31.2957 12.3364 31.421ZM19.7922 42.0143C19.2494 41.3669 19.3974 40.5254 20.1272 39.9605C20.7563 40.6259 21.365 41.2698 21.9735 41.9135C21.1853 42.6477 20.3537 42.6839 19.7922 42.0143ZM27.3194 41.7476C27.0735 42.2597 26.6573 42.5173 26.0471 42.6102C25.76 42.4647 25.4177 42.3771 25.1953 42.1638C24.1708 41.1815 23.1701 40.1735 22.1805 39.1556C21.6633 38.6236 21.6917 37.8133 22.2002 37.2942C22.7151 36.7686 23.5453 36.7369 24.0836 37.263C25.0907 38.2472 26.0824 39.2476 27.0691 40.2524C27.4747 40.6654 27.5614 41.2436 27.3194 41.7476ZM30.7066 38.3291C30.5091 38.8359 30.0202 39.1543 29.4153 39.1573C29.0827 39.1673 28.7592 39.0165 28.4883 38.7454C27.5249 37.7816 26.5578 36.8214 25.6025 35.8496C25.0357 35.2729 25.0341 34.4521 25.5758 33.9113C26.1157 33.3722 26.9382 33.3804 27.5109 33.948C28.4788 34.9073 29.4408 35.8726 30.3982 36.8424C30.8161 37.2656 30.9239 37.7717 30.7066 38.3291ZM34.0473 35.0003C33.8115 35.5169 33.3905 35.7744 32.6314 35.7929C32.4827 35.7166 32.1311 35.6229 31.9005 35.4023C30.8915 34.4368 29.9091 33.4427 28.9341 32.4423C28.3885 31.8825 28.4115 31.0556 28.9497 30.53C29.4764 30.0157 30.2911 30.0054 30.8346 30.5395C31.8311 31.5185 32.8188 32.5068 33.7936 33.5074C34.2075 33.9324 34.2965 34.4541 34.0473 35.0003ZM33.1625 29.9327C32.8417 29.6187 32.5328 29.302 32.2089 29.0016C30.777 27.674 28.5855 27.7951 27.3062 29.2707C26.7766 29.8817 26.522 30.605 26.4736 31.4191C24.4541 31.6548 23.3236 32.7824 23.085 34.8186C22.1992 34.8698 21.4011 35.1597 20.7808 35.8102C20.5086 36.0957 20.2532 36.4277 20.0971 36.7855C19.9347 37.1576 19.7006 37.4429 19.4223 37.7146C19.1109 38.0188 18.8077 38.3315 18.4984 38.638C17.8788 39.2522 17.0757 39.2904 16.5127 38.7345C15.9439 38.1729 15.9764 37.3487 16.6007 36.7201C17.6908 35.6227 18.7901 34.5343 19.8758 33.4324C20.4695 32.8298 20.2837 31.9328 19.5216 31.6826C19.0861 31.5397 18.7177 31.6726 18.399 31.9935C17.309 33.091 16.2134 34.183 15.1226 35.2798C14.7491 35.6554 14.3178 35.8344 13.7865 35.7102C12.8355 35.4878 12.4303 34.3716 13.0195 33.59C13.1088 33.4715 13.2109 33.3614 13.3158 33.2562C15.6214 30.9436 17.9282 28.6323 20.2352 26.3211C20.2832 26.273 20.3359 26.2295 20.4916 26.0888C20.6292 26.2739 20.7416 26.4822 20.905 26.6358C22.2467 27.8973 24.2762 27.8777 25.5871 26.6015C26.8844 25.3384 26.9812 23.2576 25.7669 21.9029C25.1252 21.187 24.42 20.5283 23.744 19.8433C23.6572 19.7554 23.5731 19.6648 23.4527 19.5387C24.3766 18.6599 25.2117 17.7101 26.1977 16.9596C28.3343 15.3332 30.7331 15.04 33.1981 16.0819C35.677 17.1297 37.1239 19.0661 37.4715 21.7513C37.7633 24.0052 37.0626 25.9615 35.4934 27.5961C34.7399 28.3809 33.9574 29.1376 33.1625 29.9327Z" fill="#1E1E1E"/>
</g>
<rect x="1.25" y="1.25" width="41.5" height="41.5" rx="10.75" stroke="#1E1E1E" stroke-width="2.5"/>
<defs>
<clipPath id="clip0_3259_58045">
<rect width="44" height="44" rx="12" fill="white"/>
</clipPath>
</defs>
</svg>
