<svg width="32" height="32" viewBox="0 0 32 32" fill="none" xmlns="http://www.w3.org/2000/svg">
<path d="M16 30C14.0556 30 12.2317 29.6325 10.5283 28.8975C8.82501 28.1625 7.3414 27.1631 6.0775 25.8992C4.8136 24.6353 3.81805 23.1478 3.09084 21.4367C2.36362 19.7256 2 17.8978 2 15.9533C2 14.0011 2.36362 12.1792 3.09084 10.4875C3.81805 8.79583 4.8136 7.31805 6.0775 6.05416C7.3414 4.79028 8.82501 3.79862 10.5283 3.07916C12.2317 2.35972 14.0556 2 16 2C17.9522 2 19.7781 2.35972 21.4775 3.07916C23.1769 3.79862 24.6586 4.79028 25.9225 6.05416C27.1864 7.31805 28.1819 8.79583 28.9092 10.4875C29.6364 12.1792 30 14.0011 30 15.9533C30 17.8978 29.6364 19.7256 28.9092 21.4367C28.1819 23.1478 27.1864 24.6353 25.9225 25.8992C24.6586 27.1631 23.1769 28.1625 21.4775 28.8975C19.7781 29.6325 17.9522 30 16 30ZM16 27.69C16.7467 26.85 17.3767 25.9167 17.89 24.89C18.4033 23.8633 18.8233 22.6811 19.15 21.3433H12.8733C13.1844 22.6189 13.5967 23.7817 14.11 24.8317C14.6233 25.8817 15.2533 26.8345 16 27.69ZM12.8033 27.2233C12.2744 26.3756 11.8175 25.4714 11.4325 24.5108C11.0475 23.5503 10.7267 22.4944 10.47 21.3433H5.59331C6.40998 22.8367 7.37637 24.0422 8.4925 24.96C9.6086 25.8778 11.0456 26.6322 12.8033 27.2233ZM19.22 27.2C20.7756 26.7022 22.1697 25.9517 23.4025 24.9483C24.6353 23.945 25.6367 22.7433 26.4067 21.3433H21.5533C21.2811 22.4789 20.9564 23.5269 20.5792 24.4875C20.2019 25.4481 19.7489 26.3522 19.22 27.2ZM4.73 19.01H10.0267C9.95666 18.4344 9.91194 17.9036 9.8925 17.4175C9.87306 16.9314 9.86335 16.4433 9.86335 15.9533C9.86335 15.4011 9.87695 14.8975 9.90416 14.4425C9.93139 13.9875 9.98 13.4956 10.05 12.9667H4.73C4.58221 13.4956 4.47914 13.9836 4.42081 14.4308C4.36248 14.8781 4.33331 15.3856 4.33331 15.9533C4.33331 16.5211 4.36248 17.0403 4.42081 17.5108C4.47914 17.9814 4.58221 18.4811 4.73 19.01ZM12.4067 19.01H19.6167C19.7022 18.3722 19.7586 17.8258 19.7858 17.3708C19.8131 16.9158 19.8267 16.4433 19.8267 15.9533C19.8267 15.4789 19.8131 15.0219 19.7858 14.5825C19.7586 14.1431 19.7022 13.6044 19.6167 12.9667H12.4067C12.3211 13.6044 12.2647 14.1431 12.2375 14.5825C12.2103 15.0219 12.1967 15.4789 12.1967 15.9533C12.1967 16.4433 12.2103 16.9158 12.2375 17.3708C12.2647 17.8258 12.3211 18.3722 12.4067 19.01ZM21.95 19.01H27.27C27.4178 18.4811 27.5209 17.9814 27.5792 17.5108C27.6375 17.0403 27.6667 16.5211 27.6667 15.9533C27.6667 15.3856 27.6375 14.8781 27.5792 14.4308C27.5209 13.9836 27.4178 13.4956 27.27 12.9667H21.9733C22.0433 13.6667 22.0919 14.2364 22.1192 14.6758C22.1464 15.1153 22.16 15.5411 22.16 15.9533C22.16 16.4589 22.1425 16.9392 22.1075 17.3942C22.0725 17.8492 22.02 18.3878 21.95 19.01ZM21.53 10.6333H26.4067C25.6678 9.17112 24.682 7.93833 23.4492 6.935C22.2164 5.93164 20.7989 5.2122 19.1967 4.77666C19.7256 5.60889 20.1786 6.4975 20.5558 7.4425C20.9331 8.3875 21.2578 9.45112 21.53 10.6333ZM12.8733 10.6333H19.1733C18.9089 9.46668 18.5006 8.34668 17.9483 7.27334C17.3961 6.19999 16.7467 5.22776 16 4.35666C15.3 5.05666 14.705 5.90054 14.215 6.88831C13.725 7.8761 13.2778 9.12445 12.8733 10.6333ZM5.59331 10.6333H10.4933C10.7344 9.49778 11.0397 8.46139 11.4092 7.52416C11.7786 6.58693 12.2356 5.67886 12.78 4.79997C11.1778 5.23553 9.77194 5.94721 8.5625 6.935C7.35304 7.92277 6.36331 9.15555 5.59331 10.6333Z" fill="white"/>
</svg>
