<svg width="40" height="41" viewBox="0 0 40 41" fill="none" xmlns="http://www.w3.org/2000/svg">
<g id="(ICON)">
<g id="Vector">
<path d="M6.0435 36.668C5.50052 36.4704 5.06862 36.1964 4.74779 35.8457C4.42696 35.4951 4.1777 35.0482 4 34.505L33.9121 4.66797C34.4156 4.81612 34.8549 5.08031 35.23 5.46055C35.6051 5.84081 35.8618 6.28773 36 6.8013L6.0435 36.668ZM4 24.6976V20.4902L19.8149 4.66797H24.0203L4 24.6976ZM4 10.6531V7.6309C4 6.8309 4.29369 6.13708 4.88106 5.54944C5.46843 4.96179 6.16193 4.66797 6.96156 4.66797H9.98239L4 10.6531ZM30.0028 36.668L35.9852 30.6828V33.705C35.9852 34.505 35.6915 35.1989 35.1041 35.7865C34.5168 36.3741 33.8233 36.668 33.0236 36.668H30.0028ZM15.9649 36.668L35.9852 16.6384V20.8457L20.1703 36.668H15.9649Z" fill="#3870FF"/>
</g>
</g>
</svg>
