<svg width="96" height="96" viewBox="0 0 96 96" fill="none" xmlns="http://www.w3.org/2000/svg">
<path d="M48.0501 2.1902e-05C74.5303 0.0250741 96.025 21.5449 96 48.025C96 74.5553 74.405 96.0751 47.8998 96C21.4196 95.9499 -0.0250303 74.43 2.19276e-05 47.9248C0.0250741 21.4447 21.57 -0.0250303 48.0501 2.1902e-05ZM90.3883 48C90.3632 24.5762 71.3486 5.58666 47.9749 5.63676C24.5512 5.66181 5.58666 24.6263 5.61171 48.025C5.63676 71.4238 24.6263 90.3883 48 90.4133C71.3987 90.4133 90.4133 71.3737 90.3883 48Z" fill="white"/>
<path d="M31.8914 27.3069C31.8914 26.5303 31.8664 25.8288 31.8914 25.1524C31.9165 23.7244 32.8935 22.6973 34.1962 22.6973C35.4739 22.6973 36.4259 23.6242 36.501 25.0271C36.5511 25.7286 36.501 26.4551 36.501 27.2317C39.6075 27.2317 42.6138 27.2317 45.7202 27.2317C45.7202 26.5052 45.7202 25.8538 45.7202 25.2025C45.7453 23.6743 46.6722 22.6722 48.025 22.6973C49.3277 22.7223 50.2547 23.6994 50.2797 25.1774C50.3048 25.8288 50.2797 26.4802 50.2797 27.2317C53.3361 27.2317 56.3423 27.2317 59.4989 27.2317C59.4989 26.5804 59.4739 25.929 59.4989 25.2776C59.549 23.6994 60.501 22.6722 61.8789 22.6973C63.2066 22.7223 64.1085 23.7495 64.1336 25.3027C64.1336 25.929 64.1336 26.5553 64.1336 27.3069C64.7599 27.3069 65.3611 27.3069 65.9373 27.3069C67.9165 27.3319 68.7181 28.1085 68.7181 30.1127C68.7181 38.2296 68.7181 46.3716 68.7181 54.4885C68.7181 59.7745 68.7181 65.0605 68.7181 70.3215C68.7181 72.5511 67.9666 73.3277 65.762 73.3277C53.9123 73.3277 42.0626 73.3277 30.238 73.3277C28.1336 73.3277 27.3319 72.5511 27.3319 70.4718C27.3319 57.0438 27.3319 43.5908 27.3319 30.1628C27.3319 28.1085 28.1085 27.3319 30.1628 27.3069C30.6889 27.2818 31.2401 27.3069 31.8914 27.3069ZM64.0835 41.1357C53.311 41.1357 42.6388 41.1357 31.9415 41.1357C31.9415 50.3298 31.9415 59.4488 31.9415 68.6179C42.6889 68.6179 53.3611 68.6179 64.0835 68.6179C64.0835 59.4488 64.0835 50.3298 64.0835 41.1357ZM64.0835 31.9666C53.311 31.9666 42.6388 31.9666 31.9666 31.9666C31.9666 33.5198 31.9666 34.9979 31.9666 36.476C42.714 36.476 53.3611 36.476 64.0835 36.476C64.0835 34.9478 64.0835 33.4948 64.0835 31.9666Z" fill="white"/>
<path d="M48 62.9812C45.4196 62.9812 42.8142 63.0062 40.2338 62.9812C38.7307 62.9812 37.7286 62.1043 37.6785 60.8016C37.6033 59.3987 38.5804 58.3716 40.1336 58.3465C41.762 58.3215 43.3904 58.3465 44.9937 58.3465C48.5511 58.3465 52.1085 58.3465 55.6659 58.3465C57.1941 58.3465 58.1962 59.1482 58.3215 60.4259C58.4467 61.9039 57.4196 62.9561 55.7662 62.9812C53.1858 63.0062 50.6054 62.9812 48 62.9812Z" fill="white"/>
<path d="M48 46.8726C50.5803 46.8726 53.1858 46.8726 55.7662 46.8726C57.3194 46.8726 58.2964 47.7495 58.3215 49.1023C58.3465 50.5302 57.3695 51.4321 55.7662 51.4321C50.5803 51.4572 45.3945 51.4572 40.2338 51.4321C38.6054 51.4321 37.6534 50.5302 37.6785 49.1023C37.7035 47.7495 38.6806 46.8726 40.2338 46.8726C42.8142 46.8726 45.4196 46.8726 48 46.8726Z" fill="white"/>
</svg>
