<svg width="72" height="97" viewBox="0 0 72 97" fill="none" xmlns="http://www.w3.org/2000/svg">
<g id="Vector">
<path d="M43.125 64.793H28.875C26.8031 64.793 25.125 66.4711 25.125 68.543C25.125 70.6148 26.8031 72.293 28.875 72.293H43.125C45.1969 72.293 46.875 70.6148 46.875 68.543C46.875 66.4711 45.1969 64.793 43.125 64.793Z" fill="#95A4CA"/>
<path d="M43.125 46.418H39.75V43.043C39.75 40.9711 38.0719 39.293 36 39.293C33.9281 39.293 32.25 40.9711 32.25 43.043V46.418H28.875C26.8031 46.418 25.125 48.0961 25.125 50.168C25.125 52.2398 26.8031 53.918 28.875 53.918H32.25V57.293C32.25 59.3648 33.9281 61.043 36 61.043C38.0719 61.043 39.75 59.3648 39.75 57.293V53.918H43.125C45.1969 53.918 46.875 52.2398 46.875 50.168C46.875 48.0961 45.1969 46.418 43.125 46.418Z" fill="#95A4CA"/>
<path d="M55.005 22.0973C46.9781 10.6823 39.0694 2.20922 38.7375 1.85484C38.0288 1.09734 37.0369 0.667969 36 0.667969C34.9631 0.667969 33.9731 1.09734 33.2625 1.85484C32.9306 2.20922 25.0219 10.6823 16.995 22.0973C5.96625 37.778 0.375 50.8805 0.375 61.043C0.375 80.6873 16.3556 96.668 36 96.668C55.6444 96.668 71.625 80.6873 71.625 61.043C71.625 50.8805 66.0337 37.778 55.005 22.0973ZM36 89.168C20.4919 89.168 7.875 76.5511 7.875 61.043C7.875 52.5923 13.1325 40.643 23.0775 26.4848C28.0256 19.4423 33.0225 13.4573 36 10.0411C38.9644 13.4423 43.9313 19.3898 48.87 26.4117C58.8506 40.6017 64.125 52.5773 64.125 61.043C64.125 76.5511 51.5081 89.168 36 89.168Z" fill="#95A4CA"/>
</g>
</svg>
