<svg width="96" height="97" viewBox="0 0 96 97" fill="none" xmlns="http://www.w3.org/2000/svg">
<path id="Vector" d="M88.9233 63.2149C87.9408 63.987 87.3555 65.1944 87.357 66.445C87.3724 78.38 77.7175 88.0236 65.8075 88.0236C65.7959 88.0236 65.7839 88.0236 65.773 88.0236C64.5245 88.0236 63.3194 88.6088 62.5483 89.5899C55.1278 99.0323 40.8604 99.0179 33.4513 89.5897C32.6804 88.609 31.475 88.0234 30.2266 88.0234C30.2152 88.023 30.2032 88.0234 30.1921 88.0234C18.2572 88.0238 8.62743 78.3534 8.64261 66.4446C8.6443 65.1942 8.05875 63.987 7.07647 63.2149C-2.36576 55.7946 -2.35188 41.5268 7.07647 34.118C8.05894 33.3458 8.6443 32.1384 8.6428 30.888C8.62761 18.9532 18.2823 9.30941 30.1925 9.30941C30.2041 9.30941 30.2165 9.3096 30.227 9.30941C31.4755 9.30941 32.6805 8.72424 33.4517 7.74308C36.9852 3.24677 42.288 0.667969 48.0002 0.667969C50.0712 0.667969 51.7501 2.3468 51.7501 4.41786C51.7501 6.48893 50.0712 8.16775 48.0002 8.16775C44.6043 8.16775 41.4508 9.70221 39.3484 12.3772C37.1345 15.1943 33.8106 16.8094 30.2276 16.8094C30.2159 16.8092 30.2043 16.8092 30.1929 16.8094C22.4107 16.8094 16.1326 23.1133 16.1426 30.8788C16.1471 34.468 14.5318 37.7979 11.7106 40.015C6.09269 44.43 6.10131 52.9104 11.7106 57.3184C14.5316 59.5353 16.1471 62.8654 16.1426 66.4546C16.1325 74.2371 22.4274 80.524 30.1927 80.524C33.8676 80.524 37.1622 82.1745 39.3482 84.956C43.7632 90.5741 52.2434 90.5653 56.6516 84.9562C58.8655 82.1391 62.1894 80.524 65.7724 80.524C65.7839 80.5238 65.7955 80.5238 65.8071 80.524C73.5866 80.524 79.8673 74.2225 79.8574 66.4548C79.8529 62.8654 81.4682 59.5355 84.2894 57.3184C88.2155 54.2329 89.4168 49.1254 87.8079 44.8188C87.0829 42.8788 88.068 40.7185 90.0078 39.9937C91.9474 39.2682 94.1081 40.2539 94.833 42.1935C97.5338 49.4209 95.5398 58.0154 88.9233 63.2149ZM33.2505 67.2237H48.0002C50.0712 67.2237 51.7501 65.5449 51.7501 63.4738C51.7501 61.4027 50.0712 59.7239 48.0002 59.7239H42.1387L50.3427 51.3024C52.651 48.9327 50.9688 44.9358 47.6567 44.9358H33.7039C31.6328 44.9358 29.954 46.6147 29.954 48.6857C29.954 50.7568 31.6328 52.4356 33.7039 52.4356H38.7685L30.5645 60.8571C28.2561 63.2269 29.9383 67.2237 33.2505 67.2237ZM59.0717 37.6669H81.1768C83.2479 37.6669 84.9267 35.988 84.9267 33.917C84.9267 31.8459 83.2479 30.1671 81.1768 30.1671H67.9597L83.348 14.3708C85.6585 11.999 83.9718 8.00426 80.6619 8.00426H59.7512C57.6801 8.00426 56.0013 9.68309 56.0013 11.7542C56.0013 13.8252 57.6801 15.504 59.7512 15.504H71.7741L56.3859 31.3003C54.0754 33.6721 55.7621 37.6669 59.0717 37.6669Z" fill="#95A4CA"/>
</svg>
