<svg width="96" height="97" viewBox="0 0 96 97" fill="none" xmlns="http://www.w3.org/2000/svg">
<g id="Vector">
<path d="M69.87 31.5886C68.7206 29.8655 66.3938 29.4005 64.6706 30.548L53.4206 38.048C52.3763 38.7436 51.75 39.9136 51.75 41.168C51.75 42.4223 52.3763 43.5923 53.4206 44.288L64.6706 51.788C66.39 52.9336 68.7188 52.4761 69.87 50.7473C71.0194 49.0242 70.5525 46.6955 68.8294 45.5461L62.2594 41.1661L68.8294 36.7861C70.5525 35.6367 71.0175 33.3098 69.87 31.5848V31.5886Z" fill="#95A4CA"/>
<path d="M26.13 50.7492C27.2831 52.478 29.6119 52.9336 31.3313 51.7898L42.5813 44.2898C43.6238 43.5942 44.2519 42.4223 44.2519 41.1698C44.2519 39.9173 43.6256 38.7455 42.5813 38.0498L31.3313 30.5498C29.6081 29.4005 27.2794 29.8673 26.13 31.5905C24.9806 33.3136 25.4475 35.6423 27.1706 36.7917L33.7406 41.1717L27.1706 45.5517C25.4475 46.7011 24.9825 49.0298 26.13 50.753V50.7492Z" fill="#95A4CA"/>
<path d="M40.5 82.418H55.5C61.7025 82.418 66.75 77.3705 66.75 71.168C66.75 64.9655 61.7025 59.918 55.5 59.918H40.5C34.2975 59.918 29.25 64.9655 29.25 71.168C29.25 77.3705 34.2975 82.418 40.5 82.418ZM40.5 67.418H55.5C57.5681 67.418 59.25 69.0998 59.25 71.168C59.25 73.2361 57.5681 74.918 55.5 74.918H40.5C38.4319 74.918 36.75 73.2361 36.75 71.168C36.75 69.0998 38.4319 67.418 40.5 67.418Z" fill="#95A4CA"/>
<path d="M24.5813 15.4561C31.4813 10.688 39.5794 8.16797 48 8.16797C56.4206 8.16797 64.5187 10.688 71.4187 15.4561C73.1156 16.628 75.4538 16.2136 76.635 14.5036C77.8125 12.7992 77.385 10.4648 75.6825 9.28734C67.5244 3.64734 57.9506 0.667969 48 0.667969C38.0494 0.667969 28.4756 3.64734 20.3175 9.28547C18.6131 10.463 18.1875 12.7992 19.365 14.5017C20.5425 16.2061 22.8788 16.6317 24.5813 15.4561Z" fill="#95A4CA"/>
<path d="M89.5013 32.6948C87.51 33.263 86.355 35.3386 86.9231 37.3298C87.9694 40.9992 88.5 44.813 88.5 48.668C88.5 71.378 70.71 89.168 48 89.168C25.29 89.168 7.5 71.378 7.5 48.668C7.5 44.813 8.03063 40.9973 9.07687 37.3298C9.645 35.3386 8.49187 33.263 6.49875 32.6948C4.5075 32.1267 2.43187 33.2798 1.86375 35.273C0.628125 39.6098 0 44.1173 0 48.668C0 75.5836 21.0844 96.668 48 96.668C74.9156 96.668 96 75.5836 96 48.668C96 44.1173 95.3719 39.6098 94.1362 35.273C93.5681 33.2817 91.4944 32.1267 89.5013 32.6948Z" fill="#95A4CA"/>
<path d="M5.9475 11.918L1.09875 16.7667C0.245625 17.6198 -0.144375 18.8292 0.04875 20.0198C0.241875 21.2105 0.995625 22.2342 2.07375 22.7723L17.0737 30.2723C18.93 31.2005 21.18 30.443 22.1044 28.5961C23.0306 26.7436 22.2787 24.4917 20.4281 23.5655L10.0819 18.3923L13.9031 14.5711C15.3675 13.1067 15.3675 10.733 13.9031 9.26859L6.40125 1.76672C4.93687 0.302344 2.56313 0.302344 1.09875 1.76672C-0.365625 3.23109 -0.365625 5.60484 1.09875 7.06922L5.9475 11.918Z" fill="#95A4CA"/>
<path d="M94.9013 16.7667L90.0525 11.918L94.9013 7.06922C96.3656 5.60484 96.3656 3.23109 94.9013 1.76672C93.4369 0.302344 91.0612 0.302344 89.5969 1.76672L82.0969 9.26672C80.6325 10.7311 80.6325 13.1048 82.0969 14.5692L85.9181 18.3905L75.5719 23.5636C73.7194 24.4898 72.9694 26.7417 73.8956 28.5942C74.8219 30.4467 77.0738 31.1967 78.9263 30.2705L93.9263 22.7705C96.2325 21.6173 96.6844 18.548 94.9013 16.7648V16.7667Z" fill="#95A4CA"/>
</g>
</svg>
