<svg width="20" height="21" viewBox="0 0 20 21" fill="none" xmlns="http://www.w3.org/2000/svg">
<g id="(ICON)">
<g id="Vector">
<path d="M3.33299 14.759C2.98685 14.7162 2.69198 14.5611 2.44838 14.2934C2.2048 14.0258 2.08301 13.7109 2.08301 13.3488V6.88721C2.08301 6.71093 2.13136 6.54213 2.22805 6.38081C2.32473 6.21949 2.46121 6.09129 2.63749 5.99621L8.95801 2.83594L15.1535 5.99621C15.2988 6.06351 15.4185 6.17408 15.5125 6.32792C15.6065 6.48177 15.6717 6.64256 15.708 6.81029H14.0157L8.95801 4.24617L3.33299 7.03785V14.759ZM5.99326 17.8359C5.57231 17.8359 5.21602 17.6901 4.92436 17.3984C4.6327 17.1067 4.48686 16.7504 4.48686 16.3295V9.47056C4.48686 9.04962 4.6327 8.69332 4.92436 8.40167C5.21602 8.11 5.57231 7.96417 5.99326 7.96417H16.4099C16.8308 7.96417 17.1871 8.11 17.4788 8.40167C17.7705 8.69332 17.9163 9.04962 17.9163 9.47056V16.3295C17.9163 16.7504 17.7705 17.1067 17.4788 17.3984C17.1871 17.6901 16.8308 17.8359 16.4099 17.8359H5.99326ZM11.2016 13.2878L5.73682 10.4961V16.3295C5.73682 16.4043 5.76086 16.4657 5.80895 16.5138C5.85703 16.5619 5.91847 16.5859 5.99326 16.5859H16.4099C16.4847 16.5859 16.5461 16.5619 16.5942 16.5138C16.6423 16.4657 16.6663 16.4043 16.6663 16.3295V10.4961L11.2016 13.2878ZM11.2016 12.0058L16.5702 9.26221C16.5434 9.24618 16.5181 9.23416 16.494 9.22615C16.47 9.21813 16.4419 9.21413 16.4099 9.21413H5.99326C5.96655 9.21413 5.93983 9.21813 5.91311 9.22615C5.8864 9.23416 5.8597 9.24618 5.83299 9.26221L11.2016 12.0058Z" fill="#3870FF"/>
</g>
</g>
</svg>
