<svg width="20" height="21" viewBox="0 0 20 21" fill="none" xmlns="http://www.w3.org/2000/svg">
<path d="M17.1392 8.04618C17.3191 7.99261 17.4747 7.94677 17.6296 7.90033C18.3543 7.68305 18.9956 7.84914 19.5099 8.3861C20.0028 8.90104 20.1076 9.53027 19.8973 10.2113C19.2828 12.2062 18.6684 14.201 18.0546 16.1959C17.7351 17.2323 17.4175 18.2693 17.0968 19.3057C16.8412 20.1326 16.2047 20.6362 15.387 20.663C14.5992 20.6892 13.9365 20.2284 13.6272 19.4355C13.4549 18.9932 13.2875 18.5485 13.1116 18.0889C12.5687 18.1562 12.03 18.2098 11.4954 18.2925C10.7528 18.4068 10.1396 18.2246 9.71109 17.5746C9.43397 17.1537 9.44887 16.6912 9.52039 16.2179C9.58296 15.8071 9.62766 15.3934 9.68368 14.9553C9.58237 14.9553 9.49476 14.9553 9.40715 14.9553C7.01973 14.9553 4.63231 14.957 2.24429 14.9541C1.1662 14.9529 0.314569 14.3141 0.0690325 13.3217C0.0231435 13.136 0.00347676 12.9396 0.00347676 12.7479C-9.90138e-05 9.45109 -0.00129094 6.15431 0.00168887 2.85753C0.00288079 1.60204 0.934369 0.666824 2.1847 0.665633C6.43926 0.663252 10.6938 0.663847 14.9478 0.665633C16.2029 0.666228 17.1338 1.59549 17.1374 2.85039C17.1421 4.49521 17.1386 6.14003 17.1386 7.78484C17.1386 7.86462 17.1386 7.94498 17.1386 8.04618H17.1392ZM7.45478 13.5265C7.43929 13.4735 7.43869 13.4575 7.43094 13.4456C6.78313 12.4615 7.25275 11.065 8.54837 10.6881C10.8714 10.0119 13.1766 9.27369 15.4913 8.56767C15.6624 8.51528 15.7166 8.44206 15.716 8.2593C15.7077 6.48113 15.7112 4.70237 15.7106 2.92421C15.7106 2.37891 15.4311 2.09793 14.8894 2.09793C10.6801 2.09793 6.47145 2.09793 2.26217 2.09793C1.70435 2.09793 1.42902 2.37474 1.42902 2.93433C1.42902 6.17872 1.42902 9.42311 1.42902 12.6675C1.42902 13.2563 1.69839 13.5265 2.2878 13.5265C3.93146 13.5265 5.57452 13.5265 7.21819 13.5265C7.2903 13.5265 7.36241 13.5265 7.45419 13.5265H7.45478ZM14.8542 12.1698L14.8888 12.2252C15.1927 12.2359 15.4168 12.3782 15.5307 12.6592C15.6475 12.9467 15.5968 13.2182 15.3757 13.4414C14.8161 14.0075 14.2541 14.5719 13.6862 15.1291C13.5795 15.2339 13.5586 15.3178 13.6134 15.4571C14.0628 16.6054 14.505 17.7567 14.9454 18.9081C15.0175 19.0962 15.1153 19.2444 15.337 19.2432C15.5688 19.2414 15.6689 19.0908 15.7315 18.8866C16.66 15.8613 17.5909 12.8372 18.5236 9.81304C18.576 9.64338 18.5826 9.49277 18.4503 9.35823C18.3168 9.2225 18.1654 9.23381 17.9967 9.28619C14.9752 10.2202 11.9531 11.1519 8.92979 12.0811C8.72537 12.1436 8.57638 12.2401 8.57102 12.4728C8.56566 12.6991 8.71524 12.7931 8.90237 12.8651C10.046 13.3039 11.1897 13.7438 12.3303 14.1903C12.4805 14.2492 12.5777 14.2391 12.6969 14.1165C13.2362 13.5617 13.7803 13.011 14.3393 12.4764C14.48 12.3419 14.6808 12.2704 14.8536 12.1704L14.8542 12.1698ZM12.5747 16.7162C12.4358 16.3542 12.3125 16.0292 12.1855 15.7053C12.173 15.6738 12.1456 15.6369 12.1164 15.6256C11.7773 15.491 11.4364 15.3607 11.0854 15.2249C11.0216 15.7262 10.9632 16.1905 10.9036 16.6548C10.8857 16.7924 10.9203 16.9138 11.0788 16.8977C11.5645 16.8483 12.0485 16.7816 12.5741 16.7167L12.5747 16.7162Z" fill="white"/>
<path d="M8.5442 7.98725C7.91487 7.97475 7.32844 7.77591 6.80638 7.38302C5.36892 6.30195 3.92848 5.22386 2.49042 4.14398C2.11556 3.8624 2.03451 3.42724 2.29078 3.09268C2.54287 2.76407 2.97077 2.71942 3.34027 2.99624C4.75091 4.05171 6.15916 5.10956 7.56802 6.16741C8.26887 6.69366 8.86423 6.69901 9.55972 6.17753C10.9698 5.12147 12.3786 4.06361 13.7863 3.00457C13.9937 2.8486 14.2106 2.76764 14.4716 2.84206C14.9937 2.99088 15.1713 3.62547 14.7964 4.01837C14.7404 4.07731 14.6743 4.12731 14.6093 4.17613C13.2004 5.23398 11.7892 6.28766 10.3833 7.34968C9.8434 7.75746 9.24386 7.97891 8.5448 7.98725H8.5442Z" fill="white"/>
</svg>
