<svg width="96" height="97" viewBox="0 0 96 97" fill="none" xmlns="http://www.w3.org/2000/svg">
<path id="Vector" d="M40.8753 96.668C38.8035 96.668 37.1253 94.9898 37.1253 92.918V86.3555C37.1253 84.2873 35.4435 82.6055 33.3753 82.6055H18.5628C16.491 82.6055 14.8128 80.9273 14.8128 78.8555V66.2123L2.12471 60.1092C1.13846 59.6348 0.40908 58.7536 0.125955 57.6942C-0.155295 56.6367 0.0397051 55.508 0.658455 54.6061L14.8316 33.9736C15.4635 15.5011 30.6885 0.667969 49.3128 0.667969H56.0628C63.1297 0.667969 69.9228 2.79047 75.7091 6.80484C81.3585 10.7255 85.671 16.1686 88.1797 22.5455C88.9372 24.473 87.9903 26.6498 86.0628 27.4073C84.1353 28.1648 81.9585 27.218 81.201 25.2905C77.1097 14.8898 67.2435 8.16797 56.0647 8.16797H49.3147C34.4272 8.16797 22.3147 20.2805 22.3147 35.168C22.3147 35.9255 22.0841 36.6661 21.6566 37.2905L9.32095 55.2473L20.1903 60.4767C21.4897 61.1011 22.3147 62.4155 22.3147 63.8555V75.1055H33.3772C39.5797 75.1055 44.6272 80.153 44.6272 86.3555V89.168H54.9397C57.0116 89.168 58.6897 90.8461 58.6897 92.918C58.6897 94.9898 57.0116 96.668 54.9397 96.668H40.8753ZM79.1253 83.168C81.1972 83.168 82.8753 81.4898 82.8753 79.418C82.8753 77.3461 81.1972 75.668 79.1253 75.668C77.0535 75.668 75.3753 77.3461 75.3753 79.418C75.3753 81.4898 77.0535 83.168 79.1253 83.168ZM96.0003 79.418C96.0003 74.4848 93.8572 69.8555 90.1803 66.668V37.9805C90.1803 35.9086 88.5022 34.2305 86.4303 34.2305H71.4435C69.3735 34.2305 67.6935 35.9086 67.6935 37.9786L67.6841 67.0186C64.251 70.193 62.2503 74.6986 62.2503 79.4161C62.2503 88.7217 69.8197 96.2911 79.1253 96.2911C88.431 96.2911 96.0003 88.7217 96.0003 79.4161V79.418ZM82.6803 41.7305V68.513C82.6803 69.7636 83.3028 70.9298 84.3397 71.6273C86.9441 73.3767 88.4985 76.2886 88.4985 79.418C88.4985 84.5873 84.2928 88.793 79.1235 88.793C73.9541 88.793 69.7485 84.5873 69.7485 79.418C69.7485 76.4255 71.1997 73.5848 73.6316 71.8223C74.6047 71.1173 75.1803 69.9886 75.1803 68.7867L75.1897 41.7305H82.6803Z" fill="#95A4CA"/>
</svg>
