<svg width="40" height="41" viewBox="0 0 40 41" fill="none" xmlns="http://www.w3.org/2000/svg">
<g id="(ICON)">
<path id="Vector" d="M4 36.668C4 33.7791 4.40667 31.2924 5.22 29.208C6.03333 27.1235 7.07111 25.3924 8.33332 24.0146C9.59556 22.6369 11 21.568 12.5467 20.808C14.0933 20.048 15.6 19.548 17.0667 19.308V14.0013C13.4133 13.548 10.3222 12.4657 7.79332 10.7546C5.26444 9.04353 4 7.01464 4 4.66797H36C36 7.01464 34.7356 9.04353 32.2067 10.7546C29.6778 12.4657 26.5867 13.548 22.9333 14.0013V19.308C24.4 19.548 25.9067 20.048 27.4533 20.808C29 21.568 30.4044 22.6369 31.6667 24.0146C32.9289 25.3924 33.9667 27.1235 34.78 29.208C35.5933 31.2924 36 33.7791 36 36.668H26.4V34.0013H33.1867C32.7067 29.948 31.2156 26.8858 28.7134 24.8146C26.2111 22.7435 23.3067 21.708 20 21.708C16.6933 21.708 13.7889 22.7435 11.2866 24.8146C8.78443 26.8858 7.29332 29.948 6.81332 34.0013H13.6V36.668H4ZM20 11.5346C22.6933 11.5346 25.1556 11.1013 27.3867 10.2346C29.6178 9.36796 31.1778 8.40128 32.0667 7.33461H7.93332C8.8222 8.40128 10.3822 9.36796 12.6133 10.2346C14.8444 11.1013 17.3067 11.5346 20 11.5346ZM20 36.668C19.12 36.668 18.3667 36.3546 17.74 35.728C17.1133 35.1013 16.8 34.348 16.8 33.468C16.8 33.0146 16.8867 32.6013 17.06 32.228C17.2333 31.8546 17.4667 31.5213 17.76 31.228C18.4 30.588 19.4933 29.9191 21.04 29.2213C22.5867 28.5235 24.3733 27.8058 26.4 27.068C25.6355 29.0946 24.9111 30.8813 24.2267 32.428C23.5422 33.9746 22.88 35.068 22.24 35.708C21.9467 36.0013 21.6133 36.2346 21.24 36.408C20.8667 36.5813 20.4533 36.668 20 36.668Z" fill="#3870FF"/>
</g>
</svg>
