<svg width="96" height="96" viewBox="0 0 96 96" fill="none" xmlns="http://www.w3.org/2000/svg">
<path d="M48.1 0.0111105C57.775 0.0111105 67.475 -0.0138882 77.15 0.0111105C86.05 0.0361093 93.525 5.96081 95.5 14.6354C95.825 16.0103 95.975 17.4852 95.975 18.9102C96 38.3092 96 57.7082 96 77.1072C96 87.6817 87.7 95.9812 77.15 95.9812C57.725 96.0062 38.275 96.0062 18.85 95.9812C8.3 95.9563 0.025 87.6567 0 77.0822C0 57.7082 0 38.3092 0.025 18.9102C0.025 8.31069 8.325 0.0361093 18.95 0.0111105C28.675 0.0111105 38.375 0.0111105 48.1 0.0111105ZM88.5 48.0087C88.5 38.3842 88.5 28.7597 88.5 19.1351C88.5 12.3855 83.6 7.51073 76.85 7.51073C57.625 7.51073 38.425 7.51073 19.2 7.51073C12.375 7.51073 7.5 12.3855 7.5 19.1851C7.5 38.4092 7.5 57.6082 7.5 76.8322C7.5 83.6319 12.375 88.5066 19.2 88.5066C38.375 88.5066 57.575 88.5066 76.75 88.5066C83.625 88.5066 88.5 83.6569 88.5 76.7822C88.5 67.1827 88.5 57.6082 88.5 48.0087Z" fill="#AEAEAE"/>
<path d="M65.9998 18.579C66.0248 20.6539 64.3499 22.3538 62.3 22.3788C60.2251 22.4038 58.5252 20.7289 58.5252 18.679C58.5002 16.6041 60.1751 14.9042 62.225 14.8792C64.2749 14.8542 65.9748 16.5041 65.9998 18.579Z" fill="#AEAEAE"/>
<path d="M80.9996 18.6287C80.9996 20.6786 79.2997 22.3785 77.2498 22.3785C75.1999 22.3785 73.5 20.6786 73.5 18.6287C73.5 16.5538 75.1749 14.8789 77.2498 14.8789C79.3247 14.8789 80.9996 16.5788 80.9996 18.6287Z" fill="#AEAEAE"/>
<path d="M47.5527 72.6884C43.561 72.6884 39.5855 72.7044 35.5938 72.6884C31.4259 72.6723 28.1877 69.29 28.348 65.1383C28.3961 63.9361 28.7327 62.814 29.3579 61.7881C33.4137 55.296 37.4213 48.7879 41.5252 42.3439C44.3786 37.8877 50.7748 37.9037 53.6283 42.376C57.7161 48.7879 61.7237 55.264 65.7314 61.724C67.1902 64.0804 67.2383 66.565 65.8757 68.9855C64.497 71.438 62.3329 72.6884 59.5115 72.7044C55.5199 72.7044 51.5283 72.6884 47.5527 72.6884ZM47.5527 67.8794C51.4641 67.8794 55.3596 67.8634 59.271 67.8794C60.313 67.8794 61.1627 67.5588 61.6917 66.6291C62.2207 65.6833 62.0123 64.8017 61.4672 63.9201C57.5718 57.7005 53.6764 51.4649 49.7809 45.2453C48.5786 43.3378 46.5588 43.3538 45.3565 45.2774C41.461 51.497 37.5656 57.7326 33.6702 63.9521C33.1091 64.8338 32.9327 65.7314 33.4778 66.6612C33.9908 67.5749 34.8244 67.8955 35.8503 67.8955C39.7458 67.8794 43.6412 67.8794 47.5527 67.8794Z" fill="#3870FF"/>
<path d="M45.1644 53.3894C45.1644 52.6039 45.1483 51.8345 45.1644 51.049C45.1964 49.6865 46.2383 48.6445 47.5688 48.6445C48.8993 48.6445 49.9573 49.6865 49.9733 51.049C49.9893 52.652 49.9893 54.255 49.9733 55.8419C49.9573 57.2044 48.8993 58.2464 47.5688 58.2464C46.2383 58.2464 45.1964 57.2044 45.1644 55.8419C45.1483 55.0404 45.1644 54.2229 45.1644 53.3894Z" fill="#3870FF"/>
<path d="M47.5525 60.6641C48.883 60.6641 49.957 61.7381 49.957 63.0525C49.957 64.3669 48.883 65.457 47.5685 65.457C46.2541 65.457 45.1641 64.383 45.1641 63.0685C45.1641 61.7541 46.2381 60.6641 47.5525 60.6641Z" fill="#3870FF"/>
<path d="M28.4133 20.8725H32.9997C33.0531 20.8725 33.1064 20.9125 33.1064 20.9792V22.4058C33.1064 22.4591 33.0664 22.5124 32.9997 22.5124H28.4133C28.36 22.5124 28.3066 22.4724 28.3066 22.4058V20.9658C28.3066 20.9125 28.36 20.8725 28.4133 20.8725ZM28.4133 14.6328H32.9997C33.0531 14.6328 33.1064 14.6728 33.1064 14.7395V16.1527C33.1064 16.2061 33.0664 16.2594 32.9997 16.2594H28.4133C28.36 16.2594 28.3066 16.2194 28.3066 16.1527V14.7395C28.3066 14.6728 28.36 14.6328 28.4133 14.6328Z" fill="#AEAEAE"/>
<path d="M39.4664 22.6324C39.053 22.6324 38.6531 22.5791 38.2798 22.4724C37.9064 22.3658 37.5598 22.1924 37.2398 21.9524C36.9198 21.7125 36.6665 21.3791 36.4665 20.9525C36.2799 20.5258 36.1865 20.0325 36.1865 19.4592V14.7395C36.1865 14.6861 36.2265 14.6328 36.2932 14.6328H37.7864C37.8398 14.6328 37.8931 14.6728 37.8931 14.7395V19.4726C37.8931 20.0325 38.0131 20.4325 38.2664 20.6458C38.5197 20.8725 38.9197 20.9792 39.4664 20.9792C39.9997 20.9792 40.3996 20.8592 40.653 20.6325C40.9063 20.4059 41.0396 20.0192 41.0396 19.4592V14.7395C41.0396 14.6861 41.0796 14.6328 41.1463 14.6328H42.6395C42.6929 14.6328 42.7462 14.6728 42.7462 14.7395V19.4726C42.7462 20.0325 42.6529 20.5258 42.4662 20.9525C42.2795 21.3791 42.0262 21.7125 41.7062 21.9524C41.3863 22.1924 41.0396 22.3658 40.6663 22.4857C40.293 22.5791 39.893 22.6324 39.4664 22.6324Z" fill="#AEAEAE"/>
<path d="M45.7998 22.3924V14.7395C45.7998 14.6861 45.8398 14.6328 45.9065 14.6328H47.3997C47.4531 14.6328 47.5064 14.6728 47.5064 14.7395V20.7392C47.5064 20.7925 47.5464 20.8458 47.613 20.8458H51.1862C51.2395 20.8458 51.2929 20.8858 51.2929 20.9525V22.3924C51.2929 22.4458 51.2395 22.4991 51.1862 22.4991H45.9065C45.8398 22.4991 45.7998 22.4458 45.7998 22.3924Z" fill="#AEAEAE"/>
<path d="M15.5333 20.2336H15.2667C15.12 20.2336 15 20.1136 15 19.9669V19.7002C15 19.5536 15.12 19.4336 15.2667 19.4336H15.5333C15.68 19.4336 15.8 19.5536 15.8 19.7002V19.9669C15.8 20.1136 15.68 20.2336 15.5333 20.2336Z" fill="#AEAEAE"/>
<path d="M22.1333 14.7395V19.0059C22.1333 19.1126 22 19.1526 21.9466 19.0593L18.9866 14.6728C18.9733 14.6461 18.9333 14.6328 18.9066 14.6328H17.5066C17.4533 14.6328 17.4 14.6728 17.4 14.7395V20.0459V20.4192C17.4 20.5525 17.3466 20.6725 17.2533 20.7658C17.16 20.8592 17.04 20.9125 16.9066 20.9125H16.2666C16 20.9125 15.7866 21.1258 15.7866 21.3925V22.0324C15.7866 22.2991 16 22.5124 16.2666 22.5124H16.9066C17.1733 22.5124 17.3866 22.2991 17.3866 22.0324V21.3925C17.3866 21.2591 17.44 21.1391 17.5333 21.0458C17.6266 20.9525 17.7466 20.8992 17.88 20.8992H18.6C18.8666 20.8992 19.08 20.6858 19.08 20.4192V18.0726C19.08 17.966 19.2133 17.926 19.2666 18.0193L22.32 22.4591C22.3333 22.4857 22.3733 22.4991 22.4 22.4991H23.7333C23.7866 22.4991 23.84 22.4591 23.84 22.3924V14.7395C23.84 14.6861 23.8 14.6328 23.7333 14.6328H22.24C22.1866 14.6328 22.1333 14.6728 22.1333 14.7395Z" fill="#AEAEAE"/>
<path d="M31.3865 17.7127H30.0132C29.5466 17.7127 29.16 17.326 29.16 16.8594V15.4861C29.16 15.0195 28.7733 14.6328 28.3067 14.6328C27.84 14.6328 27.4534 15.0195 27.4534 15.4861V16.8594C27.4534 17.326 27.0667 17.7127 26.6001 17.7127H25.2268C24.7602 17.7127 24.3735 18.0993 24.3735 18.5659C24.3735 19.0326 24.7602 19.4192 25.2268 19.4192H26.6001C27.0667 19.4459 27.4534 19.0859 27.4534 18.6059V17.7127C27.4534 17.246 27.84 16.8594 28.3067 16.8594C28.7733 16.8594 29.16 17.246 29.16 17.7127V18.6059C29.16 19.0726 29.5466 19.4459 30.0132 19.4192H31.3465C31.8132 19.4192 32.2265 19.0593 32.2398 18.5926C32.2531 18.1126 31.8665 17.7127 31.3865 17.7127Z" fill="#AEAEAE"/>
<path d="M29.1597 20.2713V21.6045C29.1597 22.0712 28.7997 22.4845 28.3331 22.4978C27.8531 22.5111 27.4531 22.1245 27.4531 21.6445V20.2713C27.4531 19.8046 27.8398 19.418 28.3064 19.418C28.7864 19.418 29.1597 19.8046 29.1597 20.2713Z" fill="#AEAEAE"/>
</svg>
