<svg width="96" height="96" viewBox="0 0 96 96" fill="none" xmlns="http://www.w3.org/2000/svg">
<path d="M44.212 88.4686C44.212 86.1944 44.212 84.0202 44.212 81.7211C43.8621 81.7211 43.4872 81.7211 43.1374 81.7211C32.716 81.7211 22.2696 81.7211 11.8482 81.7211C4.85058 81.7211 0.0522416 76.8978 0.0522416 69.8755C0.0522416 65.3771 0.102224 60.8788 0.0272503 56.3805C-0.0227325 53.2566 0.776992 50.4577 2.82628 48.0835C2.82628 47.9836 2.82628 47.9086 2.80129 47.8836C0.727009 45.4095 -0.0477238 42.5606 0.0022589 39.3618C0.077233 34.8385 0.0272503 30.3151 0.0272503 25.7668C0.0272503 19.1943 4.95055 14.2711 11.4983 14.2461C15.4719 14.2461 19.4206 14.2461 23.3942 14.2461C25.8183 14.2461 27.5178 15.8455 27.4928 18.0447C27.4678 20.2189 25.7684 21.7433 23.3942 21.7433C19.4955 21.7433 15.5969 21.7433 11.6732 21.7433C9.02414 21.7433 7.52466 23.2677 7.49967 25.9418C7.49967 30.665 7.49967 35.3633 7.49967 40.0865C7.49967 42.7105 9.02414 44.235 11.6232 44.235C35.8649 44.235 60.1065 44.235 84.3481 44.235C86.9472 44.235 88.4717 42.7105 88.4717 40.1115C88.4717 35.3633 88.4717 30.615 88.4717 25.8668C88.4717 23.2677 86.9472 21.7683 84.3231 21.7683C80.4245 21.7683 76.5258 21.7683 72.6022 21.7683C70.178 21.7683 68.4786 20.1689 68.5036 17.9947C68.5286 15.8205 70.203 14.2961 72.5772 14.2961C76.5758 14.2961 80.5744 14.2711 84.5731 14.2961C91.0208 14.3211 95.9441 19.2692 95.9691 25.7168C95.9691 30.1152 95.8942 34.5386 95.9941 38.9369C96.0691 42.3107 95.4443 45.3845 93.0951 48.0086C94.6196 49.8079 95.5943 51.8321 95.8692 54.1813C95.9441 54.7811 95.9691 55.3558 95.9691 55.9556C95.9691 60.7038 95.9691 65.4521 95.9691 70.2003C95.9691 76.8729 91.0458 81.771 84.3481 81.771C73.8768 81.771 63.4304 81.771 52.959 81.771C52.5841 81.771 52.2092 81.771 51.7844 81.771C51.7844 84.0202 51.7844 86.2194 51.7844 88.5185C52.1842 88.5185 52.5341 88.5185 52.909 88.5185C63.4304 88.5185 73.9517 88.5185 84.4981 88.5185C87.2721 88.5185 89.0965 90.9176 88.2718 93.4417C87.797 94.8662 86.4974 95.8908 84.9979 95.9908C84.748 96.0157 84.4981 95.9908 84.2482 95.9908C60.0815 95.9908 35.8899 95.9908 11.7232 95.9908C11.0984 95.9908 10.4736 95.9158 9.89884 95.7159C8.24941 95.1411 7.27475 93.3667 7.54965 91.6674C7.82456 89.943 9.27406 88.6185 10.9985 88.4935C11.2984 88.4686 11.6232 88.4935 11.9231 88.4935C22.2946 88.4935 32.666 88.4935 43.0374 88.4935C43.4373 88.4686 43.8121 88.4686 44.212 88.4686ZM48.0107 74.2238C60.1315 74.2238 72.2523 74.2238 84.3481 74.2238C86.9472 74.2238 88.4717 72.6994 88.4967 70.1004C88.4967 65.3521 88.4967 60.6039 88.4967 55.8557C88.4967 53.2566 86.9722 51.7322 84.3731 51.7322C60.1315 51.7322 35.9149 51.7322 11.6732 51.7322C9.07413 51.7322 7.54965 53.2566 7.52466 55.8557C7.52466 60.5289 7.52466 65.2272 7.52466 69.9004C7.52466 72.7494 8.97416 74.2238 11.8482 74.2238C23.894 74.2238 35.9399 74.2238 48.0107 74.2238Z" fill="#AEAEAE"/>
<path d="M46.6361 14.9938C49.66 14.9938 52.559 14.9688 55.458 14.9938C57.3324 15.0188 58.8569 16.1684 59.1318 17.9677C59.2567 18.7674 59.1568 19.7671 58.7819 20.4918C56.3827 25.465 53.8836 30.3881 51.3844 35.3113C50.3848 37.3106 48.1855 38.0353 46.3112 37.0856C44.4368 36.136 43.7121 33.9368 44.6868 31.9625C46.2112 28.8637 47.7607 25.7648 49.3851 22.566C49.0353 22.541 48.7853 22.4911 48.5104 22.4911C45.9613 22.4911 43.3872 22.4911 40.8381 22.4911C37.5892 22.4911 35.8398 19.7171 37.2893 16.8182C39.7135 11.92 42.1626 7.04679 44.6118 2.1736C45.4865 0.424245 47.2359 -0.350467 48.9853 0.149347C50.7347 0.649162 51.9093 2.22358 51.7343 4.02291C51.6593 4.64768 51.4344 5.29744 51.1345 5.87222C49.785 8.6212 48.4105 11.3452 47.0359 14.0692C46.911 14.3441 46.811 14.619 46.6361 14.9938Z" fill="#3870FF"/>
<path d="M78.0254 36.7342C75.9512 36.7592 74.2517 35.0848 74.2517 33.0356C74.2267 30.9614 75.9012 29.262 77.9505 29.262C80.0247 29.237 81.7242 30.9114 81.7242 32.9606C81.7741 35.0099 80.0997 36.7092 78.0254 36.7342Z" fill="#AEAEAE"/>
<path d="M63.0303 59.2268C65.0796 59.2518 66.754 60.9512 66.729 63.0004C66.704 65.0497 65.0046 66.7241 62.9553 66.6991C60.9061 66.6741 59.2316 64.9747 59.2566 62.9255C59.2816 60.8762 60.981 59.2018 63.0303 59.2268Z" fill="#AEAEAE"/>
<path d="M78.0002 59.2266C80.0745 59.2266 81.7489 60.9009 81.7489 62.9752C81.7489 65.0244 80.0495 66.7238 78.0002 66.7238C75.9509 66.7238 74.2515 65.0244 74.2515 62.9752C74.2515 60.9009 75.9259 59.2266 78.0002 59.2266Z" fill="#AEAEAE"/>
<path d="M27.6564 65.3353H32.2415C32.2948 65.3353 32.3481 65.3753 32.3481 65.442V66.8681C32.3481 66.9214 32.3082 66.9747 32.2415 66.9747H27.6564C27.6031 66.9747 27.5498 66.9347 27.5498 66.8681V65.4286C27.5498 65.3753 27.6031 65.3353 27.6564 65.3353ZM27.6564 59.0977H32.2415C32.2948 59.0977 32.3481 59.1376 32.3481 59.2043V60.6171C32.3481 60.6704 32.3082 60.7237 32.2415 60.7237H27.6564C27.6031 60.7237 27.5498 60.6837 27.5498 60.6171V59.2043C27.5498 59.1376 27.6031 59.0977 27.6564 59.0977Z" fill="#AEAEAE"/>
<path d="M38.7056 67.0947C38.2924 67.0947 37.8926 67.0414 37.5194 66.9347C37.1462 66.8281 36.7996 66.6549 36.4797 66.4149C36.1598 66.175 35.9066 65.8418 35.7067 65.4153C35.5201 64.9888 35.4268 64.4957 35.4268 63.9225V59.2043C35.4268 59.151 35.4667 59.0977 35.5334 59.0977H37.0262C37.0795 59.0977 37.1328 59.1376 37.1328 59.2043V63.9359C37.1328 64.4957 37.2528 64.8955 37.506 65.1088C37.7593 65.3353 38.1591 65.442 38.7056 65.442C39.2388 65.442 39.6386 65.322 39.8919 65.0954C40.1451 64.8688 40.2784 64.4823 40.2784 63.9225V59.2043C40.2784 59.151 40.3184 59.0977 40.385 59.0977H41.8779C41.9312 59.0977 41.9845 59.1376 41.9845 59.2043V63.9359C41.9845 64.4957 41.8912 64.9888 41.7046 65.4153C41.518 65.8418 41.2647 66.175 40.9449 66.4149C40.625 66.6549 40.2784 66.8281 39.9052 66.9481C39.532 67.0414 39.1321 67.0947 38.7056 67.0947Z" fill="#AEAEAE"/>
<path d="M45.0371 66.8548V59.2043C45.0371 59.151 45.0771 59.0977 45.1437 59.0977H46.6366C46.6899 59.0977 46.7432 59.1376 46.7432 59.2043V65.2021C46.7432 65.2554 46.7832 65.3087 46.8498 65.3087H50.4219C50.4752 65.3087 50.5285 65.3487 50.5285 65.4153V66.8548C50.5285 66.9081 50.4752 66.9614 50.4219 66.9614H45.1437C45.0771 66.9614 45.0371 66.9081 45.0371 66.8548Z" fill="#AEAEAE"/>
<path d="M14.7807 64.6942H14.5141C14.3675 64.6942 14.2476 64.5743 14.2476 64.4277V64.1611C14.2476 64.0145 14.3675 63.8945 14.5141 63.8945H14.7807C14.9273 63.8945 15.0473 64.0145 15.0473 64.1611V64.4277C15.0473 64.5743 14.9273 64.6942 14.7807 64.6942Z" fill="#AEAEAE"/>
<path d="M21.3782 59.2043V63.4694C21.3782 63.576 21.2449 63.616 21.1916 63.5227L18.2326 59.1376C18.2193 59.111 18.1793 59.0977 18.1526 59.0977H16.7531C16.6998 59.0977 16.6465 59.1376 16.6465 59.2043V64.509V64.8822C16.6465 65.0155 16.5932 65.1354 16.4999 65.2287C16.4066 65.322 16.2866 65.3753 16.1533 65.3753H15.5135C15.247 65.3753 15.0337 65.5886 15.0337 65.8551V66.4949C15.0337 66.7615 15.247 66.9747 15.5135 66.9747H16.1533C16.4199 66.9747 16.6331 66.7615 16.6331 66.4949V65.8551C16.6331 65.7219 16.6865 65.6019 16.7798 65.5086C16.8731 65.4153 16.993 65.362 17.1263 65.362H17.8461C18.1126 65.362 18.3259 65.1487 18.3259 64.8822V62.5364C18.3259 62.4298 18.4592 62.3898 18.5125 62.4831L21.5648 66.9214C21.5781 66.9481 21.6181 66.9614 21.6447 66.9614H22.9776C23.0309 66.9614 23.0842 66.9214 23.0842 66.8548V59.2043C23.0842 59.151 23.0443 59.0977 22.9776 59.0977H21.4848C21.4315 59.0977 21.3782 59.1376 21.3782 59.2043Z" fill="#AEAEAE"/>
<path d="M30.6286 62.1765H29.2557C28.7892 62.1765 28.4027 61.79 28.4027 61.3235V59.9507C28.4027 59.4842 28.0162 59.0977 27.5497 59.0977C27.0831 59.0977 26.6966 59.4842 26.6966 59.9507V61.3235C26.6966 61.79 26.3101 62.1765 25.8436 62.1765H24.4707C24.0042 62.1765 23.6177 62.563 23.6177 63.0295C23.6177 63.496 24.0042 63.8825 24.4707 63.8825H25.8436C26.3101 63.9092 26.6966 63.5493 26.6966 63.0695V62.1765C26.6966 61.71 27.0831 61.3235 27.5497 61.3235C28.0162 61.3235 28.4027 61.71 28.4027 62.1765V63.0695C28.4027 63.536 28.7892 63.9092 29.2557 63.8825H30.5886C31.0551 63.8825 31.4683 63.5227 31.4816 63.0562C31.495 62.5764 31.1084 62.1765 30.6286 62.1765Z" fill="#AEAEAE"/>
<path d="M28.4024 64.7358V66.0687C28.4024 66.5352 28.0425 66.9483 27.576 66.9617C27.0962 66.975 26.6963 66.5885 26.6963 66.1087V64.7358C26.6963 64.2693 27.0828 63.8828 27.5493 63.8828C28.0292 63.8828 28.4024 64.2693 28.4024 64.7358Z" fill="#AEAEAE"/>
</svg>
