<svg width="146" height="32" viewBox="0 0 146 32" fill="none" xmlns="http://www.w3.org/2000/svg">
<path d="M54.0249 24.9864H72.3106C72.5232 24.9864 72.7358 25.1459 72.7358 25.4117V31.0994C72.7358 31.312 72.5763 31.5247 72.3106 31.5247H54.0249C53.8122 31.5247 53.5996 31.3652 53.5996 31.0994V25.4117C53.5996 25.1459 53.8122 24.9864 54.0249 24.9864ZM54.0249 0.109375H72.3106C72.5232 0.109375 72.7358 0.268837 72.7358 0.534618V6.16917C72.7358 6.3818 72.5763 6.59443 72.3106 6.59443H54.0249C53.8122 6.59443 53.5996 6.43495 53.5996 6.16917V0.534618C53.5996 0.268837 53.8122 0.109375 54.0249 0.109375Z" fill="url(#paint0_linear_5949_5848)"/>
<path d="M98.0928 32C96.4449 32 94.8503 31.7874 93.3619 31.3621C91.8735 30.9369 90.4914 30.2458 89.2157 29.289C87.9399 28.3322 86.93 27.0033 86.1326 25.3023C85.3885 23.6013 85.0164 21.6346 85.0164 19.3488V0.478418C85.0164 0.265794 85.1758 0.0531594 85.4416 0.0531594H91.3951C91.6077 0.0531594 91.8204 0.212638 91.8204 0.478418V19.3488C91.8204 21.5814 92.2988 23.1761 93.3087 24.0266C94.3187 24.9302 95.9134 25.3555 98.0928 25.3555C100.219 25.3555 101.814 24.8771 102.824 23.9734C103.834 23.0698 104.365 21.5282 104.365 19.2957V0.425259C104.365 0.212634 104.525 0 104.79 0H110.744C110.957 0 111.169 0.159478 111.169 0.425259V19.2957C111.169 21.5282 110.797 23.495 110.053 25.196C109.309 26.897 108.299 28.2259 107.023 29.1827C105.747 30.1395 104.365 30.8306 102.877 31.309C101.388 31.7874 99.7938 32 98.0928 32Z" fill="white"/>
<path d="M123.341 31.0462V0.534618C123.341 0.321993 123.5 0.109375 123.766 0.109375H129.719C129.932 0.109375 130.145 0.268837 130.145 0.534618V24.4549C130.145 24.6675 130.304 24.8801 130.57 24.8801H144.816C145.028 24.8801 145.241 25.0396 145.241 25.3054V31.0462C145.241 31.2589 145.028 31.4715 144.816 31.4715H123.766C123.5 31.4715 123.341 31.2589 123.341 31.0462Z" fill="white"/>
<path d="M2.67629 22.4291H1.61317C1.02845 22.4291 0.550049 21.9507 0.550049 21.366V20.3029C0.550049 19.7182 1.02845 19.2397 1.61317 19.2397H2.67629C3.26101 19.2397 3.73942 19.7182 3.73942 20.3029V21.366C3.73942 21.9507 3.26101 22.4291 2.67629 22.4291Z" fill="white"/>
<path d="M28.9891 0.534618V17.5446C28.9891 17.9698 28.4575 18.1293 28.2449 17.7572L16.4442 0.268837C16.3911 0.162525 16.2316 0.109375 16.1253 0.109375H10.5439C10.3313 0.109375 10.1187 0.268837 10.1187 0.534618V21.6908V23.1791C10.1187 23.7107 9.90603 24.1891 9.53394 24.5612C9.16185 24.9333 8.68345 25.1459 8.15188 25.1459H5.60039C4.53726 25.1459 3.68677 25.9964 3.68677 27.0595V29.611C3.68677 30.6742 4.53726 31.5247 5.60039 31.5247H8.15188C9.21501 31.5247 10.0655 30.6742 10.0655 29.611V27.0595C10.0655 26.528 10.2781 26.0496 10.6502 25.6775C11.0223 25.3054 11.5007 25.0928 12.0323 25.0928H14.9027C15.9658 25.0928 16.8163 24.2423 16.8163 23.1791V13.8237C16.8163 13.3984 17.3479 13.2389 17.5605 13.611L29.7333 31.312C29.7864 31.4183 29.9459 31.4715 30.0522 31.4715H35.3678C35.5805 31.4715 35.7931 31.312 35.7931 31.0462V0.534618C35.7931 0.321993 35.6336 0.109375 35.3678 0.109375H29.4143C29.2017 0.109375 28.9891 0.268837 28.9891 0.534618Z" fill="white"/>
<path d="M65.8788 12.3884H60.4037C58.5433 12.3884 57.0018 10.8469 57.0018 8.98646V3.51136C57.0018 1.6509 55.4602 0.109375 53.5998 0.109375C51.7393 0.109375 50.1978 1.6509 50.1978 3.51136V8.98646C50.1978 10.8469 48.6562 12.3884 46.7958 12.3884H41.3207C39.4602 12.3884 37.9187 13.93 37.9187 15.7904C37.9187 17.6509 39.4602 19.1924 41.3207 19.1924H46.7958C48.6562 19.2987 50.1978 17.8635 50.1978 15.9499V12.3884C50.1978 10.528 51.7393 8.98646 53.5998 8.98646C55.4602 8.98646 57.0018 10.528 57.0018 12.3884V15.9499C57.0018 17.8104 58.5433 19.2987 60.4037 19.1924H65.7194C67.5798 19.1924 69.2277 17.7572 69.2808 15.8968C69.334 13.9831 67.7924 12.3884 65.8788 12.3884Z" fill="white"/>
<path d="M57.0025 22.5895V27.9051C57.0025 29.7656 55.5673 31.4134 53.7068 31.4666C51.7932 31.5197 50.1985 29.9782 50.1985 28.0646V22.5895C50.1985 20.729 51.74 19.1875 53.6005 19.1875C55.5141 19.1875 57.0025 20.6759 57.0025 22.5895Z" fill="white"/>
<defs>
<linearGradient id="paint0_linear_5949_5848" x1="53.6145" y1="15.7791" x2="72.742" y2="15.7791" gradientUnits="userSpaceOnUse">
<stop stop-color="#D9D9D9"/>
<stop offset="1" stop-color="white"/>
</linearGradient>
</defs>
</svg>
