<svg width="36" height="36" viewBox="0 0 36 36" fill="none" xmlns="http://www.w3.org/2000/svg">
<path fill-rule="evenodd" clip-rule="evenodd" d="M2.7787 1.22257C2.34912 0.792996 1.65264 0.792996 1.22306 1.22257C0.793485 1.65215 0.793485 2.34863 1.22306 2.77821L16.4443 17.9994L1.22306 33.2206C0.793485 33.6502 0.793485 34.3467 1.22306 34.7763C1.65264 35.2058 2.34912 35.2058 2.7787 34.7763L17.9999 19.555L33.2211 34.7762C33.6507 35.2058 34.3471 35.2058 34.7767 34.7762C35.2063 34.3466 35.2063 33.6502 34.7767 33.2206L19.5555 17.9994L34.7767 2.77824C35.2063 2.34867 35.2063 1.65219 34.7767 1.22261C34.3471 0.793032 33.6507 0.793031 33.2211 1.22261L17.9999 16.4438L2.7787 1.22257Z" fill="#1E1E1E"/>
</svg>
