<svg width="181" height="41" viewBox="0 0 181 41" fill="none" xmlns="http://www.w3.org/2000/svg">
<g id="[ NEUL Digital Healthcare ] BI Basic. Gradation">
<g id="Vector">
<path d="M67.0246 31.4387H89.7726C90.0371 31.4387 90.3016 31.637 90.3016 31.9675V39.0397C90.3016 39.3041 90.1032 39.5685 89.7726 39.5685H67.0246C66.7601 39.5685 66.4956 39.3702 66.4956 39.0397V31.9014C66.4956 31.637 66.7601 31.4387 67.0246 31.4387ZM67.0246 0.505859H89.7726C90.0371 0.505859 90.3016 0.704147 90.3016 1.03463V8.04078C90.3016 8.30517 90.1032 8.56955 89.7726 8.56955H67.0246C66.7601 8.56955 66.4956 8.37126 66.4956 8.04078V1.03463C66.4956 0.704147 66.7601 0.505859 67.0246 0.505859Z" fill="url(#paint0_linear_6299_16888)"/>
<path d="M121.845 40.1634C119.795 40.1634 117.811 39.899 115.959 39.3702C114.108 38.8414 112.388 37.9822 110.801 36.7925C109.214 35.6027 107.958 33.9503 106.966 31.8353C106.04 29.7202 105.577 27.2747 105.577 24.4325V1.03463C105.577 0.770243 105.776 0.505859 106.106 0.505859H113.512C113.777 0.505859 114.042 0.704147 114.042 1.03463V24.4986C114.042 27.2747 114.637 29.2575 115.893 30.3151C117.15 31.4387 119.133 31.9675 121.845 31.9675C124.49 31.9675 126.474 31.3726 127.73 30.249C128.986 29.1253 129.648 27.2086 129.648 24.4325V1.03463C129.648 0.770243 129.846 0.505859 130.177 0.505859H137.583C137.848 0.505859 138.112 0.704147 138.112 1.03463V24.4986C138.112 27.2747 137.649 29.7202 136.723 31.8353C135.798 33.9503 134.541 35.6027 132.954 36.7925C131.367 37.9822 129.648 38.8414 127.796 39.4363C125.945 39.899 123.961 40.1634 121.845 40.1634Z" fill="url(#paint1_linear_6299_16888)"/>
<path d="M153.255 38.9736V1.03463C153.255 0.770243 153.454 0.505859 153.784 0.505859H161.191C161.455 0.505859 161.72 0.704147 161.72 1.03463V30.7777C161.72 31.0421 161.918 31.3065 162.249 31.3065H179.971C180.235 31.3065 180.5 31.5048 180.5 31.8353V38.9736C180.5 39.238 180.235 39.5024 179.971 39.5024H153.784C153.454 39.5024 153.255 39.238 153.255 38.9736Z" fill="url(#paint2_linear_6299_16888)"/>
<path d="M3.14511 28.2661H1.82256C1.09515 28.2661 0.5 27.6712 0.5 26.9442V25.6223C0.5 24.8952 1.09515 24.3004 1.82256 24.3004H3.14511C3.87252 24.3004 4.46767 24.8952 4.46767 25.6223V26.9442C4.46767 27.6712 3.87252 28.2661 3.14511 28.2661Z" fill="url(#paint3_linear_6299_16888)"/>
<path d="M35.8784 1.03463V22.1853C35.8784 22.7141 35.2171 22.9123 34.9526 22.4497L20.2722 0.704147C20.2061 0.571955 20.0077 0.505859 19.8754 0.505859H12.932C12.6675 0.505859 12.403 0.704147 12.403 1.03463V29.1914C12.403 29.8524 12.1385 30.4473 11.6756 30.9099C11.2127 31.3726 10.6175 31.637 9.95627 31.637H6.78213C5.45957 31.637 4.40153 32.6945 4.40153 34.0164V37.189C4.40153 38.511 5.45957 39.5685 6.78213 39.5685H9.95627C11.2788 39.5685 12.3369 38.511 12.3369 37.189V34.0164C12.3369 33.3555 12.6014 32.7606 13.0643 32.2979C13.5272 31.8353 14.1223 31.5709 14.7836 31.5709H18.3545C19.6771 31.5709 20.7351 30.5134 20.7351 29.1914V17.5586C20.7351 17.0298 21.3964 16.8315 21.6609 17.2942L36.8042 39.3041C36.8703 39.4363 37.0687 39.5024 37.2009 39.5024H43.8137C44.0782 39.5024 44.3427 39.3041 44.3427 38.9736V1.03463C44.3427 0.770243 44.1444 0.505859 43.8137 0.505859H36.4074C36.1429 0.505859 35.8784 0.704147 35.8784 1.03463Z" fill="url(#paint4_linear_6299_16888)"/>
<path d="M81.7711 15.774H74.96C72.6455 15.774 70.7278 13.8572 70.7278 11.5439V4.73599C70.7278 2.42264 68.8101 0.505859 66.4956 0.505859C64.1811 0.505859 62.2634 2.42264 62.2634 4.73599V11.5439C62.2634 13.8572 60.3457 15.774 58.0312 15.774H51.2201C48.9056 15.774 46.9879 17.6908 46.9879 20.0041C46.9879 22.3175 48.9056 24.2343 51.2201 24.2343H58.0312C60.3457 24.3664 62.2634 22.5819 62.2634 20.2024V15.774C62.2634 13.4606 64.1811 11.5439 66.4956 11.5439C68.8101 11.5439 70.7278 13.4606 70.7278 15.774V20.2024C70.7278 22.5158 72.6455 24.3664 74.96 24.2343H81.5727C83.8872 24.2343 85.9372 22.4497 86.0033 20.1363C86.0694 17.7569 84.1517 15.774 81.7711 15.774Z" fill="url(#paint5_linear_6299_16888)"/>
<path d="M70.7278 28.4644V35.074C70.7278 37.3873 68.9423 39.4363 66.6279 39.5024C64.2472 39.5685 62.2634 37.6517 62.2634 35.2723V28.4644C62.2634 26.151 64.1811 24.2343 66.4956 24.2343C68.8762 24.2343 70.7278 26.151 70.7278 28.4644Z" fill="url(#paint6_linear_6299_16888)"/>
</g>
</g>
<defs>
<linearGradient id="paint0_linear_6299_16888" x1="-26.9745" y1="4.51851" x2="-18.6539" y2="66.5175" gradientUnits="userSpaceOnUse">
<stop offset="0.35" stop-color="#301F9F"/>
<stop offset="0.4644" stop-color="#3127A8"/>
<stop offset="0.6546" stop-color="#333CC2"/>
<stop offset="0.8957" stop-color="#365FEB"/>
<stop offset="1" stop-color="#3870FF"/>
</linearGradient>
<linearGradient id="paint1_linear_6299_16888" x1="2.72878" y1="0.406254" x2="13.825" y2="61.8262" gradientUnits="userSpaceOnUse">
<stop offset="0.35" stop-color="#301F9F"/>
<stop offset="0.4644" stop-color="#3127A8"/>
<stop offset="0.6546" stop-color="#333CC2"/>
<stop offset="0.8957" stop-color="#365FEB"/>
<stop offset="1" stop-color="#3870FF"/>
</linearGradient>
<linearGradient id="paint2_linear_6299_16888" x1="-49.1053" y1="8.41955" x2="-39.0844" y2="73.5538" gradientUnits="userSpaceOnUse">
<stop offset="0.35" stop-color="#301F9F"/>
<stop offset="0.4644" stop-color="#3127A8"/>
<stop offset="0.6546" stop-color="#333CC2"/>
<stop offset="0.8957" stop-color="#365FEB"/>
<stop offset="1" stop-color="#3870FF"/>
</linearGradient>
<linearGradient id="paint3_linear_6299_16888" x1="16.949" y1="4.37775" x2="30.3604" y2="65.2504" gradientUnits="userSpaceOnUse">
<stop stop-color="#FF6FA5"/>
<stop offset="1" stop-color="#FFCF3F"/>
</linearGradient>
<linearGradient id="paint4_linear_6299_16888" x1="21.5093" y1="4.17609" x2="36.8164" y2="72.1575" gradientUnits="userSpaceOnUse">
<stop offset="0.35" stop-color="#301F9F"/>
<stop offset="0.4644" stop-color="#3127A8"/>
<stop offset="0.6546" stop-color="#333CC2"/>
<stop offset="0.8957" stop-color="#365FEB"/>
<stop offset="1" stop-color="#3870FF"/>
</linearGradient>
<linearGradient id="paint5_linear_6299_16888" x1="41.5404" y1="15.3287" x2="64.2334" y2="78.0175" gradientUnits="userSpaceOnUse">
<stop stop-color="#08C6E3"/>
<stop offset="1" stop-color="#3DF9C7"/>
</linearGradient>
<linearGradient id="paint6_linear_6299_16888" x1="61.8181" y1="27.1719" x2="71.1732" y2="36.5315" gradientUnits="userSpaceOnUse">
<stop stop-color="#08C6E3"/>
<stop offset="1" stop-color="#3DF9C7"/>
</linearGradient>
</defs>
</svg>
