<svg width="100" height="100" viewBox="0 0 100 100" fill="none" xmlns="http://www.w3.org/2000/svg">
<rect x="1" y="1" width="98" height="98" rx="23" fill="white"/>
<rect x="1" y="1" width="98" height="98" rx="23" stroke="#1E1E1E" stroke-width="2"/>
<path fill-rule="evenodd" clip-rule="evenodd" d="M66.4002 33.7998C68.6093 33.7998 70.4002 35.5907 70.4002 37.7998V48.9998C70.4002 51.2089 68.6093 52.9998 66.4002 52.9998L63.2002 52.9998V57.7998L58.4002 52.9998L49.2002 52.9998C46.9911 52.9998 45.2002 51.2089 45.2002 48.9998V37.7998C45.2002 35.5907 46.9911 33.7998 49.2002 33.7998H66.4002Z" fill="url(#paint0_linear_6095_5842)"/>
<path fill-rule="evenodd" clip-rule="evenodd" d="M66.4002 33.7998C68.6093 33.7998 70.4002 35.5907 70.4002 37.7998V48.9998C70.4002 51.2089 68.6093 52.9998 66.4002 52.9998L63.2002 52.9998V57.7998L58.4002 52.9998L49.2002 52.9998C46.9911 52.9998 45.2002 51.2089 45.2002 48.9998V37.7998C45.2002 35.5907 46.9911 33.7998 49.2002 33.7998H66.4002Z" fill="#3870FF"/>
<path fill-rule="evenodd" clip-rule="evenodd" d="M54.7998 44.8999C55.6282 44.8999 56.2998 44.2283 56.2998 43.3999C56.2998 42.5715 55.6282 41.8999 54.7998 41.8999C53.9714 41.8999 53.2998 42.5715 53.2998 43.3999C53.2998 44.2283 53.9714 44.8999 54.7998 44.8999ZM60.7998 44.8999C61.6282 44.8999 62.2998 44.2283 62.2998 43.3999C62.2998 42.5715 61.6282 41.8999 60.7998 41.8999C59.9714 41.8999 59.2998 42.5715 59.2998 43.3999C59.2998 44.2283 59.9714 44.8999 60.7998 44.8999Z" fill="white"/>
<path fill-rule="evenodd" clip-rule="evenodd" d="M33.6001 18.2002C31.391 18.2002 29.6001 19.9911 29.6001 22.2002V35.8002C29.6001 38.0093 31.391 39.8002 33.6001 39.8002L36.8001 39.8002V44.6002L42.8001 39.8002L50.8001 39.8002C53.0092 39.8002 54.8001 38.0093 54.8001 35.8002V22.2002C54.8001 19.9911 53.0092 18.2002 50.8001 18.2002H33.6001Z" fill="url(#paint1_linear_6095_5842)"/>
<path fill-rule="evenodd" clip-rule="evenodd" d="M33.6001 18.2002C31.391 18.2002 29.6001 19.9911 29.6001 22.2002V35.8002C29.6001 38.0093 31.391 39.8002 33.6001 39.8002L36.8001 39.8002V44.6002L42.8001 39.8002L50.8001 39.8002C53.0092 39.8002 54.8001 38.0093 54.8001 35.8002V22.2002C54.8001 19.9911 53.0092 18.2002 50.8001 18.2002H33.6001Z" fill="#1F249F"/>
<path fill-rule="evenodd" clip-rule="evenodd" d="M42.2002 24.5C41.3718 24.5 40.7002 25.1716 40.7002 26V27.5H39.2002C38.3718 27.5 37.7002 28.1716 37.7002 29C37.7002 29.8284 38.3718 30.5 39.2002 30.5H40.7002V32C40.7002 32.8284 41.3718 33.5 42.2002 33.5C43.0286 33.5 43.7002 32.8284 43.7002 32V30.5H45.2002C46.0286 30.5 46.7002 29.8284 46.7002 29C46.7002 28.1716 46.0286 27.5 45.2002 27.5H43.7002V26C43.7002 25.1716 43.0286 24.5 42.2002 24.5Z" fill="white"/>
<path d="M35.76 82.19H34.01V75.75H32.96V81.616H31.238V69.506H32.96V74.238H34.01V69.296H35.76V82.19ZM28.606 73.188C28.606 73.6733 28.648 74.1587 28.732 74.644C28.8253 75.12 28.97 75.5727 29.166 76.002C29.362 76.4313 29.614 76.8233 29.922 77.178C30.2393 77.5327 30.6267 77.8313 31.084 78.074L30.104 79.446C29.516 79.1473 29.0353 78.7553 28.662 78.27C28.2887 77.7753 27.9853 77.22 27.752 76.604C27.5373 77.276 27.2387 77.8873 26.856 78.438C26.4733 78.9793 25.988 79.4133 25.4 79.74L24.364 78.354C24.8213 78.0927 25.2087 77.7707 25.526 77.388C25.8433 76.996 26.1 76.576 26.296 76.128C26.492 75.6707 26.632 75.19 26.716 74.686C26.8093 74.182 26.856 73.6827 26.856 73.188V72.978H24.798V71.48H26.856V69.73H28.606V71.48H30.65V72.978H28.606V73.188ZM46.3289 77.122V69.31H48.1909V77.122H46.3289ZM45.4329 76.212C44.9756 76.2867 44.5229 76.3473 44.0749 76.394C43.6362 76.4313 43.1742 76.464 42.6889 76.492C42.2129 76.5107 41.6949 76.5247 41.1349 76.534C40.5842 76.5433 39.9682 76.548 39.2869 76.548H38.1809V70.206H44.3829V71.662H40.0149V72.656H44.0049V74.084H40.0149V75.092C40.5749 75.092 41.0882 75.0873 41.5549 75.078C42.0216 75.0687 42.4602 75.05 42.8709 75.022C43.2909 74.994 43.6922 74.9613 44.0749 74.924C44.4669 74.8867 44.8636 74.84 45.2649 74.784L45.4329 76.212ZM43.8369 77.304C44.5182 77.304 45.1296 77.36 45.6709 77.472C46.2216 77.584 46.6836 77.7473 47.0569 77.962C47.4396 78.1673 47.7336 78.424 47.9389 78.732C48.1442 79.0307 48.2469 79.3713 48.2469 79.754C48.2469 80.146 48.1442 80.496 47.9389 80.804C47.7336 81.112 47.4396 81.3687 47.0569 81.574C46.6836 81.7887 46.2216 81.9473 45.6709 82.05C45.1296 82.162 44.5182 82.218 43.8369 82.218C42.4649 82.218 41.3869 82.0033 40.6029 81.574C39.8282 81.154 39.4409 80.5473 39.4409 79.754C39.4409 79.3713 39.5389 79.0307 39.7349 78.732C39.9402 78.424 40.2296 78.1673 40.6029 77.962C40.9856 77.7473 41.4476 77.584 41.9889 77.472C42.5396 77.36 43.1556 77.304 43.8369 77.304ZM43.8369 80.79C45.5449 80.79 46.3989 80.4447 46.3989 79.754C46.3989 79.0633 45.5449 78.718 43.8369 78.718C42.1289 78.718 41.2749 79.0633 41.2749 79.754C41.2749 80.4447 42.1289 80.79 43.8369 80.79ZM51.7878 74.658V69.856H60.5378V74.658H51.7878ZM53.6078 71.298V73.202H58.7178V71.298H53.6078ZM62.0218 77.136H57.2758V79.334H55.4278V77.136H50.3458V75.68H62.0218V77.136ZM60.7338 80.51V81.98H51.7038V78.242H53.5518V80.51H60.7338ZM73.9907 82.232H72.1427V69.296H73.9907V82.232ZM67.3827 70.164C67.8867 70.164 68.3534 70.2433 68.7827 70.402C69.2214 70.5607 69.5994 70.78 69.9167 71.06C70.2341 71.34 70.4814 71.676 70.6587 72.068C70.8454 72.4507 70.9387 72.8753 70.9387 73.342C70.9387 73.7993 70.8454 74.224 70.6587 74.616C70.4814 75.008 70.2341 75.344 69.9167 75.624C69.5994 75.904 69.2214 76.1233 68.7827 76.282C68.3534 76.4407 67.8867 76.52 67.3827 76.52C66.8787 76.52 66.4074 76.4407 65.9687 76.282C65.5394 76.1233 65.1661 75.904 64.8487 75.624C64.5407 75.344 64.2934 75.008 64.1067 74.616C63.9294 74.224 63.8407 73.7993 63.8407 73.342C63.8407 72.8753 63.9294 72.4507 64.1067 72.068C64.2934 71.676 64.5407 71.34 64.8487 71.06C65.1661 70.78 65.5394 70.5607 65.9687 70.402C66.4074 70.2433 66.8787 70.164 67.3827 70.164ZM67.3827 71.746C66.8787 71.746 66.4587 71.886 66.1227 72.166C65.7961 72.446 65.6327 72.838 65.6327 73.342C65.6327 73.846 65.7961 74.238 66.1227 74.518C66.4587 74.798 66.8787 74.938 67.3827 74.938C67.8867 74.938 68.3021 74.798 68.6287 74.518C68.9647 74.238 69.1327 73.846 69.1327 73.342C69.1327 72.838 68.9647 72.446 68.6287 72.166C68.3021 71.886 67.8867 71.746 67.3827 71.746ZM63.2947 78.116C63.8641 78.116 64.4801 78.116 65.1427 78.116C65.8054 78.1067 66.4914 78.088 67.2007 78.06C67.9101 78.032 68.6241 77.99 69.3427 77.934C70.0614 77.878 70.7614 77.7987 71.4427 77.696L71.5547 79.026C70.8641 79.166 70.1594 79.278 69.4407 79.362C68.7314 79.4367 68.0314 79.4927 67.3407 79.53C66.6501 79.5673 65.9827 79.5907 65.3387 79.6C64.6947 79.6093 64.0927 79.614 63.5327 79.614L63.2947 78.116Z" fill="#1E1E1E"/>
<defs>
<linearGradient id="paint0_linear_6095_5842" x1="70.4002" y1="51.2143" x2="45.2123" y2="33.8753" gradientUnits="userSpaceOnUse">
<stop stop-color="#03DED2"/>
<stop offset="1" stop-color="#3870FF"/>
</linearGradient>
<linearGradient id="paint1_linear_6095_5842" x1="54.6001" y1="39.0598" x2="27.8755" y2="20.4839" gradientUnits="userSpaceOnUse">
<stop offset="0.35" stop-color="#301F9F"/>
<stop offset="0.4644" stop-color="#3127A8"/>
<stop offset="0.6546" stop-color="#333CC2"/>
<stop offset="0.8957" stop-color="#365FEB"/>
<stop offset="1" stop-color="#3870FF"/>
</linearGradient>
</defs>
</svg>
